<?xml version="1.0" standalone="no"?>
<!DOCTYPE svg PUBLIC "-//W3C//DTD SVG 1.1//EN" "http://www.w3.org/Graphics/SVG/1.1/DTD/svg11.dtd" >
<svg xmlns="http://www.w3.org/2000/svg">
<metadata>
This is a custom SVG webfont generated by Font Squirrel.
Copyright   : Copyright 1993 Greg Thompson Agenda is a Trademark of Greg Thompson Produced by The Font Bureau Inc
Foundry     : Greg Thompson Agenda is a Trademark of Greg Thompson Produced by The Font Bureau Inc
</metadata>
<defs>
<font id="webfontj5hYqbQm" horiz-adv-x="1230" >
<font-face units-per-em="2048" ascent="1638" descent="-410" />
<missing-glyph horiz-adv-x="487" />
<glyph unicode=" "  horiz-adv-x="487" />
<glyph unicode="&#x09;" horiz-adv-x="487" />
<glyph unicode="&#xa0;" horiz-adv-x="487" />
<glyph unicode="!" horiz-adv-x="483" d="M340 92q0 -14 -10.5 -33.5t-24.5 -37t-30.5 -29.5t-30.5 -12q-12 0 -28.5 12t-32 29.5t-26 37t-10.5 33.5t10.5 33.5t26 37t31.5 30t29 12.5q14 0 30.5 -12.5t30.5 -30t24.5 -37t10.5 -33.5zM297 319l-109 29l-22 1049h151z" />
<glyph unicode="&#x22;" horiz-adv-x="567" d="M172 1038h-74l-24 420h129zM465 1038h-74l-26 420h127z" />
<glyph unicode="#" horiz-adv-x="843" d="M336 788l-62 -270h220l61 270h-219zM653 788l-61 -270h141v-86h-162l-100 -432h-98l100 432h-219l-100 -432h-99l101 432h-121v86h141l62 270h-142v86h162l100 433h99l-101 -433h222l98 433h98l-98 -433h119v-86h-142z" />
<glyph unicode="$" horiz-adv-x="921" d="M831 340q0 -141 -90 -241.5t-256 -116.5v-181h-86v176q-104 4 -181 32t-138 73l33 119q57 -45 133 -77t174 -32q66 0 118 19.5t89 51.5t56 75t19 92q0 94 -64.5 167.5t-199.5 120.5q-166 59 -258 154.5t-92 220.5q0 59 19.5 115.5t58.5 101.5t97.5 76t135.5 41v182h86 v-180q90 -4 155 -25.5t112 -50.5l-29 -112q-51 33 -117.5 54.5t-142.5 21.5q-63 0 -109.5 -18.5t-77 -49.5t-46 -69t-15.5 -74q0 -162 248 -254q172 -66 270 -166.5t98 -245.5z" />
<glyph unicode="%" horiz-adv-x="1433" d="M1245 256q0 80 -49 126t-119 46q-68 0 -117 -46t-49 -126q0 -82 49.5 -130t116.5 -48q70 0 119 48t49 130zM522 1053q0 82 -49 128t-117 46q-70 0 -118 -46t-48 -128t48.5 -129t117.5 -47q68 0 117 47t49 129zM1354 256q0 -61 -21.5 -112.5t-58.5 -88.5t-87 -57.5 t-110 -20.5q-57 0 -107 20.5t-87 57.5t-58.5 88.5t-21.5 112.5q0 59 21.5 110.5t58.5 88.5t87 57t107 20q59 0 109.5 -20t87.5 -57t58.5 -88.5t21.5 -110.5zM213 -39l-68 57l1076 1328l65 -56zM633 1053q0 -61 -21.5 -112.5t-58.5 -87.5t-87 -56.5t-110 -20.5 q-59 0 -109 20.5t-87 56.5t-57.5 87t-20.5 113q0 61 20.5 112.5t57.5 87t87 56t109 20.5t109.5 -20.5t87.5 -56t58.5 -87t21.5 -112.5z" />
<glyph unicode="&#x26;" horiz-adv-x="1204" d="M434 614q-111 -63 -165 -129.5t-54 -158.5q0 -47 21.5 -89t58.5 -75t86 -51.5t104 -18.5q92 0 175 38t153 103zM694 1022q0 39 -16 75t-44 62.5t-66 43t-81 16.5q-39 0 -74.5 -16.5t-61 -44.5t-41 -62.5t-15.5 -73.5q0 -59 41 -119.5t127 -144.5q231 131 231 264zM1047 0 l-148 147q-80 -78 -184.5 -124t-235.5 -46q-88 0 -160.5 29t-125 76t-81 108.5t-28.5 128.5q0 127 65.5 216.5t200.5 162.5q-90 88 -135 167t-45 157q0 72 27.5 128t72.5 96t102.5 61.5t114.5 21.5q61 0 121 -21.5t107 -61.5t75.5 -96t28.5 -128q0 -111 -75.5 -195 t-196.5 -153l348 -348q98 133 147 301l88 -88q-23 -78 -60.5 -155t-88.5 -144l242 -240h-176z" />
<glyph unicode="'" horiz-adv-x="276" d="M172 1038h-74l-24 420h129z" />
<glyph unicode="(" horiz-adv-x="499" d="M446 1423q-104 -193 -169.5 -431t-65.5 -500q0 -270 57.5 -496.5t167.5 -454.5l-137 33q-47 94 -87 192.5t-68.5 209t-44 237.5t-15.5 276q0 295 61.5 527.5t169.5 435.5z" />
<glyph unicode=")" horiz-adv-x="499" d="M416 504q0 -295 -61.5 -527.5t-172.5 -435.5l-129 29q104 193 170 432.5t66 499.5q0 135 -14.5 258t-44 239.5t-71.5 228t-98 226.5l140 -35q47 -94 87 -192.5t68.5 -209t44 -236t15.5 -277.5z" />
<glyph unicode="*" horiz-adv-x="835" d="M494 993l188 -239l-82 -92l-184 272l-164 -252l-111 51l199 258l-289 78l15 119l301 -109l-11 297l121 29l-14 -326l280 107l64 -109z" />
<glyph unicode="+" horiz-adv-x="946" d="M535 512v-305h-123v305h-322v111h322v305h123v-305h321v-111h-321z" />
<glyph unicode="," horiz-adv-x="382" d="M287 92q0 -29 -14.5 -70.5t-38 -88t-54 -90.5t-65.5 -79l-58 9q47 57 77 119.5t36 107.5q-23 6 -49.5 36t-26.5 56q0 14 10.5 33.5t25.5 37t31.5 30t28.5 12.5t29 -12.5t32 -29t25.5 -36t10.5 -35.5z" />
<glyph unicode="-" horiz-adv-x="692" d="M90 512v111h512v-111h-512z" />
<glyph unicode="." horiz-adv-x="382" d="M285 92q0 -14 -10.5 -33.5t-24.5 -37t-31.5 -29.5t-30.5 -12q-12 0 -29.5 12t-31.5 29.5t-24.5 37t-10.5 33.5t10.5 33.5t24.5 37t31.5 30t29.5 12.5t30 -12.5t32 -30t24.5 -37t10.5 -33.5z" />
<glyph unicode="/" horiz-adv-x="1271" d="M145 -31l-88 72l1071 1321l86 -70z" />
<glyph unicode="0" horiz-adv-x="1110" d="M893 655q0 145 -27.5 250t-75 173.5t-108.5 101t-127 32.5q-68 0 -129 -32.5t-107.5 -101t-74 -173t-27.5 -250.5q0 -145 27.5 -251.5t74 -175t107.5 -101.5t129 -33t129 33t107.5 101.5t74 174t27.5 252.5zM1024 655q0 -170 -39 -297t-104.5 -212t-149.5 -127t-176 -42 q-94 0 -179 42t-149.5 126t-102.5 211t-38 299q0 168 38 294t102.5 211t149.5 127t179 42q90 0 175 -42t150.5 -127t104.5 -211t39 -294z" />
<glyph unicode="1" horiz-adv-x="598" d="M285 0v1208l-265 -26l29 112l365 33v-1327h-129z" />
<glyph unicode="2" horiz-adv-x="937" d="M59 0v31q299 299 456 527t157 384q0 139 -79 205.5t-198 66.5q-82 0 -144.5 -23.5t-121.5 -64.5l-31 117q59 35 132 60.5t165 25.5q90 0 166 -25.5t129 -74.5t83 -122t30 -169q0 -92 -46 -199.5t-120 -217t-166 -215t-182 -193.5h579v-113h-809z" />
<glyph unicode="3" horiz-adv-x="856" d="M770 389q0 -90 -29.5 -166t-88 -130t-144.5 -83.5t-197 -29.5q-63 0 -119.5 13t-101.5 36l-39 139q59 -37 125 -55.5t129 -18.5q70 0 130.5 19.5t105.5 59.5t71.5 98.5t26.5 134.5q0 55 -23.5 105t-63.5 89t-92 61.5t-110 22.5h-29q-15 0 -30 -2l-31 109q121 23 199 87 t78 144q0 82 -56.5 138.5t-158.5 56.5q-115 0 -216 -64l-26 111q51 31 111.5 48t134.5 17q76 0 138 -22.5t107 -61.5t70 -93t25 -118q0 -47 -16.5 -90t-43 -79t-62.5 -60.5t-75 -36.5q55 -10 109.5 -40t97.5 -79t68.5 -114.5t25.5 -145.5z" />
<glyph unicode="4" horiz-adv-x="980" d="M612 1081q-35 -55 -73 -107l-74 -100l-305 -401h454v401v102q0 50 2 103zM743 367v-367h-129v367h-567l-24 104l632 836h88v-834h164v-106h-164z" />
<glyph unicode="5" horiz-adv-x="911" d="M825 391q0 -84 -29.5 -158.5t-86 -131t-138.5 -89t-186 -32.5q-74 0 -140.5 16t-105.5 39l-37 137q66 -41 135.5 -59.5t141.5 -18.5q66 0 123 21.5t100 59.5t67.5 93.5t24.5 122.5q0 68 -24.5 124t-67.5 96t-99.5 61.5t-119.5 21.5q-72 0 -129 -10t-104 -31l20 654h549 l-27 -113h-399l-10 -399q18 6 46.5 10t63.5 4q90 0 169 -29.5t137.5 -84t92 -131.5t33.5 -173z" />
<glyph unicode="6" horiz-adv-x="1009" d="M797 389q0 66 -21.5 121t-59.5 95t-91.5 62.5t-116.5 22.5q-104 0 -181 -53t-106 -164q-2 -10 -2 -31v-32q0 -68 23.5 -126.5t63.5 -100.5t94.5 -65.5t113.5 -23.5t111.5 21.5t90.5 61.5t59.5 94.5t21.5 117.5zM928 391q0 -88 -31 -163.5t-86 -131t-131 -86t-168 -30.5 q-86 0 -164 29.5t-136 88t-92 143.5t-34 193q0 131 45 263t125 251t189.5 219.5t238.5 169.5l131 -57q-96 -49 -182 -112.5t-156.5 -139.5t-124 -161t-88.5 -175q29 41 94.5 77t157.5 36t168 -31t130 -86t84 -131t30 -166z" />
<glyph unicode="7" horiz-adv-x="903" d="M322 0h-140l514 1194h-651v113h836z" />
<glyph unicode="8" horiz-adv-x="1019" d="M803 358q0 55 -25.5 102.5t-67.5 84.5t-96.5 64.5t-113.5 41.5q-57 -16 -110.5 -42.5t-93.5 -63.5t-63.5 -84t-23.5 -103q0 -59 24.5 -108t65.5 -84t95.5 -54.5t111.5 -19.5q59 0 112.5 19.5t94.5 54.5t65.5 84t24.5 108zM750 1010q0 47 -18.5 85t-51.5 65.5t-77 43 t-93 15.5t-92 -15.5t-75 -43t-51.5 -65.5t-19.5 -85q0 -82 65.5 -144.5t178.5 -93.5q111 35 172.5 95.5t61.5 142.5zM934 354q0 -88 -34 -157.5t-92 -118.5t-135 -75t-163 -26t-164 26t-135 75t-91 118.5t-34 157.5q0 74 26.5 133.5t68.5 105.5t91.5 76.5t94.5 45.5 q-43 16 -83 43.5t-71 65.5t-50.5 85t-19.5 103q0 70 29 128t79 100t116.5 65.5t142.5 23.5t142.5 -22.5t115.5 -64.5t77.5 -100.5t28.5 -129.5q0 -55 -19 -101.5t-50 -84.5t-71 -65.5t-83 -43.5q47 -14 97.5 -45t91.5 -77t67.5 -106.5t26.5 -134.5z" />
<glyph unicode="9" horiz-adv-x="1009" d="M793 899q0 68 -24 126t-64.5 100t-95 65.5t-113.5 23.5t-111.5 -21.5t-90.5 -61t-59.5 -93t-21.5 -118.5q0 -66 21.5 -121.5t60.5 -95t91 -62.5t116 -23q104 0 181 53.5t105 164.5q2 10 3.5 30.5t1.5 32.5zM924 877q0 -131 -45 -263.5t-125 -252t-188.5 -220 t-237.5 -170.5l-131 58q193 98 337 252.5t214 334.5q-29 -41 -95.5 -75.5t-158.5 -34.5q-90 0 -166 30.5t-130.5 86t-85 131t-30.5 166.5q0 88 30.5 162.5t86 130t132.5 86t167 30.5q86 0 163.5 -29.5t136 -88t92.5 -142t34 -192.5z" />
<glyph unicode=":" horiz-adv-x="382" d="M285 92q0 -14 -10.5 -33.5t-24.5 -37t-31.5 -29.5t-30.5 -12q-12 0 -29.5 12t-31.5 29.5t-24.5 37t-10.5 33.5t10.5 33.5t24.5 37t31.5 30t29.5 12.5t30 -12.5t32 -30t24.5 -37t10.5 -33.5zM285 836q0 -14 -10.5 -34t-24.5 -37t-31.5 -29.5t-30.5 -12.5q-12 0 -29.5 12.5 t-31.5 29.5t-24.5 36.5t-10.5 34.5q0 14 10.5 33.5t24.5 37t31.5 29.5t29.5 12t30 -12t32 -29.5t24.5 -37t10.5 -33.5z" />
<glyph unicode=";" horiz-adv-x="382" d="M287 92q0 -29 -14.5 -70.5t-38 -88t-54 -90.5t-65.5 -79l-58 9q47 57 77 119.5t36 107.5q-23 6 -49.5 36t-26.5 56q0 14 10.5 33.5t25.5 37t31.5 30t28.5 12.5t29 -12.5t32 -29t25.5 -36t10.5 -35.5zM285 836q0 -14 -10.5 -34t-24.5 -37t-31.5 -29.5t-30.5 -12.5 q-12 0 -29.5 12.5t-31.5 29.5t-24.5 36.5t-10.5 34.5q0 14 10.5 33.5t24.5 37t31.5 29.5t29.5 12t30 -12t32 -29.5t24.5 -37t10.5 -33.5z" />
<glyph unicode="&#x37e;" horiz-adv-x="382" d="M287 92q0 -29 -14.5 -70.5t-38 -88t-54 -90.5t-65.5 -79l-58 9q47 57 77 119.5t36 107.5q-23 6 -49.5 36t-26.5 56q0 14 10.5 33.5t25.5 37t31.5 30t28.5 12.5t29 -12.5t32 -29t25.5 -36t10.5 -35.5zM285 836q0 -14 -10.5 -34t-24.5 -37t-31.5 -29.5t-30.5 -12.5 q-12 0 -29.5 12.5t-31.5 29.5t-24.5 36.5t-10.5 34.5q0 14 10.5 33.5t24.5 37t31.5 29.5t29.5 12t30 -12t32 -29.5t24.5 -37t10.5 -33.5z" />
<glyph unicode="&#x3c;" horiz-adv-x="718" d="M463 205l-363 362l363 363l86 -84l-279 -279l279 -278z" />
<glyph unicode="=" horiz-adv-x="946" d="M90 336v110h766v-110h-766zM90 688v111h766v-111h-766z" />
<glyph unicode="&#x3e;" horiz-adv-x="718" d="M256 205l-84 84l277 278l-277 279l84 84l362 -363z" />
<glyph unicode="?" horiz-adv-x="784" d="M453 92q0 -14 -10.5 -33.5t-25 -37t-30.5 -29.5t-31 -12q-12 0 -29.5 12t-31.5 29.5t-24.5 37t-10.5 33.5t10.5 33.5t24.5 37t31.5 30t29.5 12.5q14 0 30.5 -12.5t31 -30t25 -37t10.5 -33.5zM702 1069q0 -106 -56 -189t-136 -167q-59 -63 -87 -127t-28 -137q0 -37 2 -71 t9 -61l-111 27q-6 27 -10 56.5t-4 62.5q0 98 34.5 182t98.5 150q66 66 109.5 132t43.5 154q0 43 -16 83t-47 71t-75 49.5t-97 18.5q-80 0 -140.5 -29t-107.5 -76l-29 119q45 43 115 71.5t160 28.5q80 0 148.5 -23.5t118.5 -68.5t77.5 -109.5t27.5 -146.5z" />
<glyph unicode="@" horiz-adv-x="1572" d="M1014 889q-14 10 -43 19.5t-62 9.5q-63 0 -124.5 -28t-109.5 -78t-78 -118.5t-30 -150.5q0 -78 41 -122t105 -44q88 0 162.5 83t107.5 257zM1487 788q0 -82 -26.5 -172t-77 -165.5t-123 -125t-162.5 -49.5q-61 0 -99 40t-36 118q-37 -72 -109 -115t-170 -43 q-45 0 -87 17.5t-75 51.5t-52 83t-19 113q0 109 42 196.5t108.5 151t150.5 97.5t166 34q78 0 134 -23.5t87 -52.5l-74 -426q-6 -33 -6 -55q0 -43 15.5 -62.5t37.5 -19.5q39 0 86 31.5t87 87t67.5 130.5t27.5 161q0 92 -33.5 172.5t-96 140t-152.5 94.5t-201 35 q-141 0 -269 -53.5t-223.5 -147.5t-151.5 -221t-56 -272q0 -113 35.5 -199t97 -143.5t143.5 -87t176 -29.5q137 0 230 65l-33 -118q-31 -20 -85 -33.5t-128 -13.5q-119 0 -219.5 39.5t-173 112.5t-113.5 176.5t-41 230.5q0 166 64.5 311t176 251.5t261 168t317.5 61.5 q135 0 242.5 -43t183.5 -116.5t116 -172t40 -211.5z" />
<glyph unicode="A" d="M686 881q-18 45 -35.5 96l-34.5 104h-4q-16 -53 -34.5 -104l-36.5 -96l-158 -402h459zM1038 0l-149 367h-553l-148 -367h-135l541 1333h43l541 -1333h-140z" />
<glyph unicode="B" horiz-adv-x="1034" d="M809 389q0 63 -24.5 113.5t-66.5 85.5t-98.5 53t-117.5 18h-223v-540h231q59 0 113.5 18.5t95.5 52t65.5 85t24.5 114.5zM674 983q0 100 -66.5 152.5t-165.5 52.5h-163v-410h170q92 0 158.5 53.5t66.5 151.5zM948 389q0 -92 -34.5 -164.5t-92 -122t-131.5 -76t-153 -26.5 h-396v1307h322q68 0 131 -22.5t112.5 -63.5t78 -101.5t28.5 -136.5q0 -78 -39 -146.5t-104 -97.5q55 -12 105 -43.5t89 -78t61.5 -104.5t22.5 -124z" />
<glyph unicode="C" horiz-adv-x="1224" d="M1137 1120q-57 37 -148.5 63.5t-195.5 26.5q-111 0 -213.5 -37.5t-181.5 -110.5t-126 -176.5t-47 -232.5t47 -231.5t125 -175t180.5 -110.5t215.5 -38q227 0 368 88l-33 -139q-61 -35 -144 -52.5t-206 -17.5q-131 0 -256 46.5t-221 134.5t-155.5 213t-59.5 282 q0 160 59.5 285t156.5 212t222 133t254 46q127 0 223.5 -24.5t161.5 -63.5z" />
<glyph unicode="D" horiz-adv-x="1296" d="M1067 653q0 131 -46 230.5t-127 167t-191.5 102.5t-239.5 35h-184v-1069h184q129 0 239.5 34.5t191.5 102.5t127 167t46 230zM1208 653q0 -156 -57 -277.5t-156.5 -204.5t-231.5 -127t-280 -44h-342v1307h342q147 0 279.5 -44t232 -127t156.5 -205t57 -278z" />
<glyph unicode="E" horiz-adv-x="940" d="M141 0v1307h682v-119h-544v-471h446v-119h-446v-479h616v-119h-754z" />
<glyph unicode="F" horiz-adv-x="868" d="M279 1188v-471h475v-119h-475v-598h-138v1307h695v-119h-557z" />
<glyph unicode="G" horiz-adv-x="1382" d="M1264 119q-88 -68 -208 -105t-270 -37q-137 0 -263 47.5t-223 134.5t-155.5 213t-58.5 281q0 160 59.5 285t155.5 212t221 133t256 46q129 0 233.5 -26.5t178.5 -73.5l-29 -121q-72 47 -167 74.5t-201 27.5q-111 0 -214.5 -37.5t-181.5 -110.5t-125 -176.5t-47 -234.5 q0 -129 46 -231.5t125 -174t182.5 -109.5t216.5 -38q111 0 198.5 27t136.5 61v324h-344v113h478v-504z" />
<glyph unicode="H" horiz-adv-x="1306" d="M1028 0v598h-749v-598h-138v1307h138v-590h749v590h137v-1307h-137z" />
<glyph unicode="I" horiz-adv-x="489" d="M176 0v1307h137v-1307h-137z" />
<glyph unicode="J" horiz-adv-x="516" d="M340 264q0 -117 -30.5 -207t-83 -154.5t-120 -103.5t-139.5 -53l-90 92q158 33 242 138.5t84 302.5v1028h137v-1043z" />
<glyph unicode="K" horiz-adv-x="1060" d="M864 0l-585 627v-627h-138v1307h138v-629l569 629h162l-588 -648l612 -659h-170z" />
<glyph unicode="L" horiz-adv-x="909" d="M141 0v1307h138v-1188h608v-119h-746z" />
<glyph unicode="M" horiz-adv-x="1679" d="M1438 0l-56 678q-6 86 -11 171t-9 169h-4q-35 -82 -79 -175l-83 -173l-332 -684h-45l-334 684l-79 169l-82 177h-5q-4 -84 -9 -172t-11 -166l-53 -678h-125l104 1307h88l361 -734l87 -181q44 -93 83 -185h4q37 90 79 180l89 186l358 734h88l109 -1307h-133z" />
<glyph unicode="N" horiz-adv-x="1419" d="M1241 -29l-643 738l-168 195l-151 181l-5 -2q4 -92 5 -182v-180v-721h-138v1307h97l606 -695l149 -174l148 -176l4 2q-4 88 -4 175v171v697h137v-1336h-37z" />
<glyph unicode="O" horiz-adv-x="1540" d="M1315 655q0 127 -45 229.5t-121 174t-174 111.5t-205 40q-106 0 -205.5 -40t-174.5 -111.5t-120 -174t-45 -229.5q0 -125 45 -228t120 -176t174.5 -113t205.5 -40t204.5 40t174.5 113t121 176t45 228zM1454 655q0 -154 -56.5 -278.5t-150.5 -213.5t-218 -137.5 t-259 -48.5t-259 48.5t-218 137.5t-150.5 214t-56.5 278q0 152 56.5 276t150.5 213t218 137t259 48t259 -48t218 -137t150.5 -213t56.5 -276z" />
<glyph unicode="P" horiz-adv-x="925" d="M750 952q0 55 -21.5 99.5t-57.5 74t-84 46t-104 16.5h-204v-471h213q51 0 98 15.5t82 46t56.5 74.5t21.5 99zM889 952q0 -84 -32 -149.5t-84 -111.5t-119.5 -69.5t-139.5 -23.5h-235v-598h-138v1307h365q74 0 143.5 -23.5t122.5 -70t85 -112t32 -149.5z" />
<glyph unicode="Q" horiz-adv-x="1540" d="M1315 655q0 127 -45 229.5t-121 174t-174 111.5t-205 40q-106 0 -205.5 -40t-174.5 -111.5t-120 -174t-45 -229.5q0 -125 45 -228t120 -176t174.5 -113t205.5 -40t204.5 40t174.5 113t121 176t45 228zM1442 -240q-39 -14 -96 -14q-53 0 -99.5 6t-91.5 20.5t-93 35 t-104 51.5q-78 41 -142 71.5l-111 51.5q-125 12 -238 65t-198 140t-134 206t-49 262q0 152 56.5 276t150.5 213t218 137t259 48t259 -48t218 -137t150.5 -213t56.5 -276q0 -127 -42 -237.5t-113.5 -196.5t-170 -141t-208.5 -74v-4q23 -4 54.5 -17.5t78.5 -35.5 q98 -49 171.5 -70.5t145.5 -21.5q92 0 164 32z" />
<glyph unicode="R" horiz-adv-x="1079" d="M758 952q0 55 -21.5 99.5t-57.5 74t-84 46t-103 16.5h-213v-471h221q51 0 98 15.5t82 46t56.5 74.5t21.5 99zM940 0l-436 598h-225v-598h-138v1307h373q74 0 143.5 -23.5t123 -70t85 -112t31.5 -149.5q0 -129 -72.5 -216t-183.5 -118l459 -618h-160z" />
<glyph unicode="S" horiz-adv-x="946" d="M862 350q0 -170 -113.5 -271.5t-310.5 -101.5q-115 0 -204 31t-142 70l-39 162q86 -66 181.5 -104t209.5 -38q123 0 201 65.5t78 174.5q0 102 -63.5 168.5t-200.5 114.5q-176 61 -260 155t-84 223q0 61 23.5 120t70.5 106t120.5 75.5t172.5 28.5q90 0 162.5 -23.5 t113.5 -52.5l-28 -114q-39 29 -108 52t-144 23q-61 0 -108.5 -18t-78 -47t-47 -67t-16.5 -74q0 -78 57 -139.5t182 -108.5q176 -66 275.5 -159t99.5 -251z" />
<glyph unicode="T" horiz-adv-x="1064" d="M600 1188v-1188h-137v1188h-449v119h1037v-119h-451z" />
<glyph unicode="U" horiz-adv-x="1302" d="M1161 453q0 -111 -37 -199t-104.5 -149.5t-160.5 -94.5t-208 -33q-113 0 -207 33t-161.5 94.5t-104.5 149.5t-37 199v854h138v-842q0 -172 97 -268.5t277 -96.5q178 0 276.5 96.5t98.5 268.5v842h133v-854z" />
<glyph unicode="V" horiz-adv-x="1148" d="M594 -20h-39l-522 1327h145l275 -701l64 -171q34 -91 63 -179h4l60 176q32 90 65 174l276 701h131z" />
<glyph unicode="W" horiz-adv-x="1886" d="M1370 -20h-41l-262 761l-60 182l-63 199h-4l-62 -199l-61 -182l-260 -761h-43l-459 1327h140l237 -686l57 -166q29 -86 52 -176h4q25 88 52 174l56 168l236 686h121l235 -686q59 -168 107 -342h4l53 171l57 171l236 686h129z" />
<glyph unicode="X" horiz-adv-x="1128" d="M911 0l-235 377q-29 43 -56 91l-57 97h-4q-27 -49 -57 -98l-56 -90l-239 -377h-148l422 666l-401 641h158l223 -357l53 -88q29 -47 51 -90h4q23 43 52 90l53 88l227 357h148l-402 -633l422 -674h-158z" />
<glyph unicode="Y" horiz-adv-x="1183" d="M657 604v-604h-135v604l-497 703h151l283 -400l67 -98l68 -100h4l66 99l69 99l285 400h141z" />
<glyph unicode="Z" horiz-adv-x="1011" d="M53 0v31l451 770l118 200l113 187l-2 2h-627v117h824v-31l-455 -774l-116 -196l-113 -187l2 -2h702v-117h-897z" />
<glyph unicode="[" horiz-adv-x="604" d="M133 -446v1880h404v-111h-275v-1659h275v-110h-404z" />
<glyph unicode="\" horiz-adv-x="1271" d="M1124 -31l-1067 1323l86 70l1071 -1321z" />
<glyph unicode="]" horiz-adv-x="604" d="M74 -446v110h276v1659h-276v111h403v-1880h-403z" />
<glyph unicode="^" horiz-adv-x="774" d="M616 1024q-68 31 -124 71t-105 93q-49 -53 -105.5 -93t-123.5 -71l-84 82q94 41 174 111.5t139 156.5q59 -86 139 -156.5t174 -111.5z" />
<glyph unicode="_" horiz-adv-x="1024" d="M-2 -473v113h1030v-113h-1030z" />
<glyph unicode="`" horiz-adv-x="737" d="M494 1057q-92 23 -178.5 60.5t-161.5 103.5l26 120q76 -78 179.5 -131t207.5 -82z" />
<glyph unicode="a" horiz-adv-x="913" d="M621 455l-228 -21q-90 -8 -141 -57t-51 -125q0 -70 51 -116t125 -46q41 0 85 17.5t78.5 48t57.5 74.5t23 100v125zM782 -20q-47 10 -88 49t-51 92q-37 -66 -110.5 -103.5t-159.5 -37.5q-66 0 -120 21.5t-94 58t-61.5 86t-21.5 106.5q0 68 25.5 120t66.5 87t94 54t111 26 l248 24v88q0 86 -57.5 135.5t-162.5 49.5q-66 0 -132 -19.5t-113 -50.5l-27 108q53 37 127 55.5t152 18.5q74 0 137 -20.5t109 -59.5t72 -97t26 -132v-424q0 -70 34.5 -106.5t79.5 -45.5z" />
<glyph unicode="b" horiz-adv-x="1046" d="M840 467q0 82 -30 149.5t-80 115.5t-116.5 75t-138.5 27q-66 0 -121 -17.5t-90 -46.5v-633q35 -16 82 -29.5t113 -13.5q86 0 156.5 28t120.5 77t77 117.5t27 150.5zM971 467q0 -111 -38 -200t-105.5 -153.5t-162 -99t-206.5 -34.5q-98 0 -181 24.5t-143 61.5v1392h129 v-563q35 25 89.5 39t121.5 14q100 0 190.5 -34.5t158 -98t107.5 -153t40 -195.5z" />
<glyph unicode="c" horiz-adv-x="935" d="M838 762q-53 35 -120 53.5t-138 18.5q-78 0 -146.5 -27t-119 -76t-79 -117.5t-28.5 -150.5t29.5 -149.5t80 -117t119 -76t148.5 -26.5q72 0 136 15.5t136 52.5l-33 -131q-47 -27 -112.5 -39t-137.5 -12q-98 0 -188 33.5t-158.5 97t-109.5 152.5t-41 200t40 201 t108.5 152.5t158.5 97t190 34.5q90 0 164 -20.5t127 -50.5z" />
<glyph unicode="d" horiz-adv-x="1083" d="M817 735q-41 41 -108.5 70t-145.5 29q-76 0 -140.5 -28t-112.5 -77t-75.5 -116.5t-27.5 -149.5t27.5 -149.5t75.5 -117t112.5 -76t140.5 -26.5q80 0 145.5 26.5t108.5 74.5v540zM834 0l-5 78q-47 -49 -121.5 -73.5t-164.5 -24.5q-86 0 -170 32.5t-150.5 95t-106.5 152.5 t-40 203q0 106 37 195.5t102.5 154t154.5 100t193 35.5q78 0 145.5 -22.5t108.5 -53.5v586h131v-1458h-114z" />
<glyph unicode="e" horiz-adv-x="989" d="M784 596q0 41 -16 83t-48 77t-79 57.5t-111 22.5q-57 0 -108 -22.5t-93 -59.5t-70 -85t-38 -100h561q2 9 2 27zM913 602v-33q0 -16 -4 -30l-78 -76h-620q-1 -10 -1 -20q0 -59 21 -116q25 -67 74 -118t119 -83t156 -32q84 0 153.5 21.5t136.5 70.5l-36 -143 q-53 -31 -118 -47t-151 -16q-100 0 -189 35.5t-155.5 99t-105.5 152.5t-39 196q0 113 39 203t102.5 152.5t144 96t162.5 33.5q96 0 169 -29.5t122 -78.5t73.5 -112t24.5 -126z" />
<glyph unicode="f" horiz-adv-x="653" d="M692 1325q-29 14 -67.5 22.5t-79.5 8.5q-111 0 -171.5 -82t-60.5 -207v-139h293l-24 -107h-269v-821h-131v821h-147v107h147v104q0 215 100.5 324.5t282.5 109.5q43 0 83 -8t71 -22z" />
<glyph unicode="g" horiz-adv-x="933" d="M748 -178q0 66 -43 110.5t-121 69.5l-187 57q-100 -2 -164.5 -61t-64.5 -152q0 -41 19.5 -78.5t57.5 -67.5t92 -48.5t124 -18.5q68 0 121 16.5t90 43t56.5 60.5t19.5 69zM678 641q0 41 -16.5 77t-46 63.5t-68.5 43t-86 15.5q-96 0 -158.5 -58.5t-62.5 -140.5 q0 -86 62.5 -143.5t158.5 -57.5q43 0 83 15.5t69.5 43t47 63.5t17.5 79zM870 -178q0 -63 -29.5 -116.5t-82.5 -93.5t-129 -62.5t-166 -22.5q-92 0 -168 24.5t-130 67.5t-84 101.5t-30 125.5q0 57 18.5 104.5t49.5 84.5t70.5 60.5t80.5 33.5l-110 100q0 25 11 48.5t29.5 43 t42 35t46.5 21.5q-70 35 -120 103.5t-50 160.5q0 68 25.5 124t70.5 97t107.5 63.5t136.5 22.5q37 0 65.5 -5t50.5 -11q45 -14 115 -14q41 0 78 9t63 23l27 -106q-16 -10 -57 -19.5t-70 -9.5q29 -29 48.5 -74t19.5 -100q0 -61 -23.5 -117.5t-67.5 -99.5t-107.5 -67.5 t-141.5 -24.5t-119 -21.5t-41 -50.5q0 -6 25.5 -30.5t58.5 -34.5l240 -82q119 -41 183 -107.5t64 -183.5z" />
<glyph unicode="h" horiz-adv-x="1036" d="M784 0v612q0 98 -65.5 161t-190.5 63q-121 0 -192.5 -62.5t-71.5 -161.5v-612h-129v1458h129v-635q35 49 105.5 87t189.5 38q76 0 140.5 -22.5t112.5 -63.5t74.5 -101.5t26.5 -135.5v-625h-129z" />
<glyph unicode="i" horiz-adv-x="471" d="M170 0v928h131v-928h-131zM324 1206q0 -12 -9.5 -28.5t-24 -32t-28.5 -26.5t-26 -11t-26.5 11t-28 26.5t-22.5 32t-9 28.5t9 29.5t22.5 33t27.5 27t27 11.5q12 0 26 -11.5t28.5 -27t24 -33t9.5 -29.5z" />
<glyph unicode="j" horiz-adv-x="471" d="M301 -106q0 -72 -20.5 -133.5t-54 -108.5t-79 -79t-96.5 -44l-84 82q98 23 150.5 94.5t52.5 198.5v1024h131v-1034zM322 1206q0 -12 -9.5 -28.5t-23 -32t-27.5 -26.5t-26 -11t-26.5 11t-28 26.5t-22.5 32t-9 28.5t9 29.5t22.5 33t27.5 27t27 11.5q12 0 26 -11.5t27.5 -27 t23 -33t9.5 -29.5z" />
<glyph unicode="k" horiz-adv-x="882" d="M705 0l-441 451v-451h-129v1458h129v-973l430 443h156l-438 -455l460 -473h-167z" />
<glyph unicode="l" horiz-adv-x="518" d="M330 -31q-27 8 -55.5 24.5t-51 44.5t-38 68.5t-15.5 96.5v1255h129v-1241q0 -66 36 -107.5t83 -52.5z" />
<glyph unicode="m" horiz-adv-x="1564" d="M1315 0v651q0 88 -60.5 136.5t-169.5 48.5q-106 0 -171.5 -49.5t-65.5 -135.5v-651h-129v651q0 88 -61.5 136.5t-170.5 48.5q-106 0 -171.5 -49.5t-65.5 -135.5v-651h-129v928h117l4 -103q37 51 102.5 87t181.5 36q92 0 166 -40t109 -105q35 59 113.5 102t207.5 43 q70 0 128.5 -20.5t101.5 -58.5t67.5 -90t24.5 -117v-662h-129z" />
<glyph unicode="n" horiz-adv-x="1019" d="M770 0v612q0 98 -65.5 161t-190.5 63q-121 0 -192.5 -62.5t-71.5 -161.5v-612h-129v928h117l4 -113q37 53 108.5 93t194.5 40q76 0 140.5 -22.5t112.5 -63.5t74.5 -101.5t26.5 -135.5v-625h-129z" />
<glyph unicode="o" horiz-adv-x="1128" d="M922 463q0 82 -28 149.5t-77 116.5t-113.5 77t-138.5 28q-76 0 -141.5 -28t-113.5 -77t-75.5 -116.5t-27.5 -149.5t27.5 -149.5t75.5 -117t113.5 -76t141.5 -26.5q74 0 138.5 26.5t113.5 76t77 117t28 149.5zM1053 463q0 -106 -37 -194.5t-102.5 -153t-154.5 -100 t-194 -35.5q-104 0 -193 35.5t-154.5 100t-103.5 152.5t-38 195q0 106 38 195.5t103.5 154t154.5 100t193 35.5t193.5 -35.5t155 -100t102.5 -154t37 -195.5z" />
<glyph unicode="p" horiz-adv-x="1083" d="M877 465q0 82 -28 149.5t-76 116.5t-112.5 76t-140.5 27q-80 0 -145.5 -27t-110.5 -74v-540q41 -41 109.5 -70t146.5 -29q76 0 140.5 28t112.5 77t76 116.5t28 149.5zM1008 465q0 -106 -37 -195.5t-102.5 -154t-154.5 -100t-194 -35.5q-78 0 -146.5 22.5t-109.5 52.5 v-528h-129v1401h115l2 -78q49 49 123 73.5t166 24.5q86 0 170 -32.5t149.5 -95t106.5 -151.5t41 -204z" />
<glyph unicode="q" horiz-adv-x="1046" d="M782 776q-37 25 -94 41.5t-123 16.5q-74 0 -139.5 -27t-114.5 -75t-76.5 -115.5t-27.5 -147.5q0 -86 29.5 -154.5t80 -118t117 -76t139.5 -26.5q61 0 114.5 17.5t94.5 46.5v618zM782 -473v506q-39 -25 -92 -39t-117 -14q-100 0 -191 34.5t-158.5 99t-107.5 154.5t-40 201 t39 199t105.5 150.5t155.5 96t189 33.5q66 0 135.5 -16.5t118.5 -42.5l53 51h39v-1413h-129z" />
<glyph unicode="r" horiz-adv-x="651" d="M618 829h-20q-66 0 -125 -23.5t-104 -69.5t-72 -116.5t-27 -164.5v-455h-129v928h123l6 -178q29 86 114 138t208 52z" />
<glyph unicode="s" horiz-adv-x="761" d="M676 242q0 -117 -85 -189.5t-233 -72.5q-86 0 -152.5 21.5t-107.5 53.5l-35 150q57 -53 134 -84t163 -31q78 0 132.5 39t54.5 107q0 66 -47 107.5t-125 70.5q-129 47 -200 112.5t-71 175.5q0 55 21.5 100.5t59.5 77t91.5 50t114.5 18.5q76 0 138.5 -20.5t88.5 -38.5 l-24 -107q-29 18 -82 38t-123 20t-114 -37t-44 -96q0 -61 42 -98.5t120 -65.5q133 -47 208 -116.5t75 -184.5z" />
<glyph unicode="t" horiz-adv-x="712" d="M653 821h-305v-590q0 -68 40 -100.5t97 -32.5q68 0 107 19l-31 -121q-31 -10 -86 -10q-109 0 -182.5 63.5t-73.5 186.5v585h-192v107h192v200l129 68v-268h332z" />
<glyph unicode="u" horiz-adv-x="1019" d="M782 0l-4 113q-37 -53 -108.5 -93t-194.5 -40q-76 0 -140.5 22.5t-112.5 63t-74.5 101t-26.5 136.5v625h129v-613q0 -98 65.5 -160.5t190.5 -62.5q121 0 192.5 62.5t71.5 160.5v613h129v-928h-117z" />
<glyph unicode="v" horiz-adv-x="940" d="M494 -18h-48l-391 946h131l199 -475l46 -117q24 -59 42 -119h4q20 59 43 118l47 118l195 475h123z" />
<glyph unicode="w" horiz-adv-x="1456" d="M1044 -18h-40l-187 505l-44 127q-22 63 -42 131h-4l-43 -132q-20 -62 -43 -121l-186 -510h-43l-346 946h124l168 -463q23 -59 41 -119l35 -113h4l36 115q19 61 40 115l168 465h98l168 -463q20 -53 40 -112.5t36 -119.5h4l38 117l40 113l166 465h119z" />
<glyph unicode="x" horiz-adv-x="888" d="M674 0l-156 246q-39 61 -72 125h-4q-16 -31 -38 -64l-39 -61l-156 -246h-139l301 473l-285 455h145l146 -234q37 -57 67 -116h5l69 116l146 234h141l-285 -451l299 -477h-145z" />
<glyph unicode="y" horiz-adv-x="950" d="M539 80q-53 -125 -108.5 -218t-114 -161t-121 -111t-132.5 -67l-79 82q133 41 234 152.5t192 324.5l-359 846h135l199 -467l46 -114l46 -120h4l45 116l47 114l201 471h125z" />
<glyph unicode="z" horiz-adv-x="831" d="M53 0v25l322 528l82 133q43 70 84 129l-2 2h-447v111h645v-25l-323 -528l-81 -131l-83 -131l2 -2h520v-111h-719z" />
<glyph unicode="{" horiz-adv-x="675" d="M588 -449q-102 0 -173 39t-115 108t-63.5 161t-19.5 198q0 145 -41 257t-145 178q104 66 145 178t41 258q0 104 19.5 196.5t63.5 161t114.5 107.5t173.5 39l28 -103q-76 0 -128 -28.5t-83.5 -83t-46 -129t-14.5 -166.5q0 -139 -37 -246t-123 -184q86 -76 123 -183.5 t37 -247.5q0 -92 14.5 -166.5t46 -129t84 -83t127.5 -28.5z" />
<glyph unicode="|" horiz-adv-x="440" d="M164 -473v1931h112v-1931h-112z" />
<glyph unicode="}" horiz-adv-x="675" d="M647 492q-104 -66 -145 -177.5t-41 -257.5q0 -106 -19.5 -198t-63.5 -161t-116 -108t-174 -39l-27 103q76 0 127.5 28.5t83 83t46 129t14.5 166.5q0 139 37 247t125 184q-88 78 -125 184t-37 246q0 92 -14.5 166.5t-46 129t-83 83t-127.5 28.5l27 103q102 0 174 -39 t116 -107.5t63.5 -161t19.5 -196.5q0 -145 41 -257.5t145 -178.5z" />
<glyph unicode="~" horiz-adv-x="798" d="M664 551q-59 -43 -131 -68.5t-148 -29.5l-33 112q-57 -4 -120.5 -29.5t-116.5 -60.5l22 107q61 39 131 66.5t148 31.5l33 -115q59 4 121.5 31t115.5 59z" />
<glyph unicode="&#xa1;" horiz-adv-x="483" d="M164 -86l22 1077l109 -28l22 -1049h-153zM334 1217q0 -12 -10.5 -32t-24.5 -37.5t-31.5 -29.5t-29.5 -12t-30 12t-32 29.5t-24.5 37t-10.5 32.5q0 14 10.5 33.5t24.5 37t31.5 29.5t30.5 12q12 0 29.5 -12t31.5 -29.5t24.5 -37t10.5 -33.5z" />
<glyph unicode="&#xa2;" horiz-adv-x="935" d="M838 1130q-53 37 -120 55.5t-138 18.5q-78 0 -146.5 -26.5t-119 -75.5t-79 -118t-28.5 -150q0 -82 29.5 -150t80 -117t119 -75.5t148.5 -26.5q72 0 136 14.5t136 52.5l-33 -131q-41 -23 -95 -35t-114 -16v-182h-86v184q-92 6 -175 43t-144.5 99.5t-97 148.5t-35.5 191 q0 104 35.5 189t97 148.5t143.5 100.5t176 45v192h86v-192q78 -4 140.5 -23.5t109.5 -48.5z" />
<glyph unicode="&#xa3;" horiz-adv-x="868" d="M778 -23q-66 25 -143.5 38.5t-159.5 13.5q-86 0 -167 -14.5t-130 -30.5l-100 53q55 86 82.5 196.5t27.5 268.5v106h-147v86h147v187q0 227 105.5 335.5t290.5 108.5q43 0 83 -8t70 -23l-26 -110q-29 14 -68 22t-80 8q-115 0 -180.5 -82.5t-65.5 -218.5v-219h314l-13 -86 h-301v-116q0 -137 -19 -230.5t-48 -146.5q41 10 105.5 17t123.5 7q74 0 160 -11t158 -38z" />
<glyph unicode="&#xa4;" horiz-adv-x="1003" d="M754 567q0 51 -19.5 96.5t-54.5 79t-80 53t-98 19.5q-51 0 -96.5 -19.5t-79 -53t-53 -79t-19.5 -96.5t19.5 -97t53 -80t79 -53.5t96.5 -19.5q53 0 98 19.5t80 53.5t54.5 80t19.5 97zM836 164l-136 135q-43 -29 -93 -46t-105 -17q-57 0 -108.5 18t-92.5 49l-137 -137 l-62 63l138 138q-68 86 -68 200q0 113 64 195q2 0 -20 21l-48 48l-68 68l62 64l135 -136q41 35 93 53.5t112 18.5q57 0 108.5 -18.5t94.5 -49.5l133 134l61 -62l-133 -133q33 -43 51.5 -94t18.5 -109q0 -59 -19.5 -111.5t-54.5 -95.5l137 -135z" />
<glyph unicode="&#xa5;" horiz-adv-x="1183" d="M776 770h185v-86h-246l-58 -80v-37h304v-86h-304v-481h-135v481h-311v86h311v35l-55 82h-256v86h192l-378 537h153l283 -400q35 -47 69 -99l66 -99h4l67 99l68 99l285 400h139z" />
<glyph unicode="&#xa6;" horiz-adv-x="440" d="M164 -473v844h112v-844h-112zM164 614v844h112v-844h-112z" />
<glyph unicode="&#xa7;" horiz-adv-x="927" d="M258 750l-43 -154l461 -471l47 156zM819 -133q0 -57 -22.5 -114.5t-66.5 -103.5t-112.5 -75t-160.5 -29q-96 0 -167 20.5t-122 53.5l27 119q51 -35 117.5 -55.5t140.5 -20.5q61 0 107 18.5t75 47t43 65.5t14 74q0 35 -10 71.5t-41 67.5l-520 535l69 252q-74 80 -73 213 q0 57 22.5 114.5t67.5 103.5t113.5 74.5t160.5 28.5q94 0 166 -20.5t123 -53.5l-29 -118q-49 35 -116.5 55t-141.5 20q-61 0 -106 -18t-75 -47t-43 -66t-13 -73q0 -37 12 -75t39 -65l520 -534l-72 -252q74 -80 74 -213z" />
<glyph unicode="&#xa8;" horiz-adv-x="737" d="M313 1159q0 -12 -9 -29.5t-21.5 -34t-27.5 -27.5t-28 -11q-10 0 -25.5 11t-28.5 27.5t-22.5 34t-9.5 29.5t9.5 30.5t22.5 35t28.5 28t25.5 11.5q12 0 27.5 -11.5t28 -28t21.5 -35t9 -30.5zM594 1159q0 -12 -8 -29.5t-21.5 -34t-28 -27.5t-26.5 -11t-27.5 11t-28 27.5 t-21.5 34t-9 29.5t9 30.5t21.5 35t28 28t27.5 11.5t26.5 -11.5t28 -28t21.5 -35t8 -30.5z" />
<glyph unicode="&#xa9;" d="M817 657q-72 45 -162 45q-82 0 -140 -53t-58 -139q0 -90 58 -146.5t140 -56.5q41 0 83 11.5t89 46.5l-26 -113q-27 -16 -67 -28.5t-83 -12.5q-59 0 -114.5 21.5t-97.5 61.5t-66.5 95t-24.5 121t24.5 119t66.5 91t97.5 59.5t114.5 21.5t106.5 -16.5t78.5 -39.5zM1071 512 q0 98 -33.5 182t-95 145.5t-145.5 96.5t-183 35q-98 0 -182 -35t-144.5 -96.5t-94 -145.5t-33.5 -182t33.5 -182t94 -145.5t144.5 -96.5t182 -35t182.5 35t146 96.5t95 145.5t33.5 182zM1157 512q0 -119 -42 -217t-114.5 -169t-172 -111t-214.5 -40q-113 0 -211 40 t-171.5 111t-115.5 169t-42 217t42 218t115.5 170t172 110t210.5 39q115 0 214.5 -39t172 -110t114.5 -170t42 -218z" />
<glyph unicode="&#xaa;" horiz-adv-x="745" d="M510 934l-182 -19q-61 -8 -101.5 -46t-40.5 -97q0 -55 39 -91t97 -36q33 0 65.5 12.5t60 37t45 60.5t17.5 81v98zM465 309q0 -12 -8 -29.5t-20.5 -34t-27 -27.5t-26.5 -11t-26.5 11t-27 27.5t-21.5 34t-9 29.5t9 30.5t21.5 35t27 28t26.5 11.5t26.5 -11.5t27 -28 t20.5 -35t8 -30.5zM647 555q-41 8 -71.5 35.5t-43.5 68.5q-31 -47 -90 -75.5t-125 -28.5q-106 0 -173.5 64.5t-67.5 158.5q0 51 19.5 91t52 70t75.5 46t88 21l199 20v66q0 63 -44 101t-124 38q-53 0 -106.5 -15.5t-92.5 -44.5l-26 97q47 33 106.5 47t122.5 14 q123 0 202 -63.5t79 -184.5v-333q0 -53 28.5 -81t69.5 -36z" />
<glyph unicode="&#xab;" horiz-adv-x="849" d="M336 221q-53 96 -138 188.5t-188 157.5q102 68 187.5 159t138.5 187l74 -73q-37 -78 -95.5 -148.5t-124.5 -124.5q66 -53 124.5 -123.5t95.5 -148.5zM725 221q-53 96 -138 188.5t-190 157.5q104 68 189.5 159t138.5 187l74 -73q-37 -78 -95.5 -148.5t-123.5 -124.5 q66 -53 124 -123.5t95 -148.5z" />
<glyph unicode="&#xac;" horiz-adv-x="1040" d="M793 293v219h-703v111h819v-330h-116z" />
<glyph unicode="&#xad;" horiz-adv-x="692" d="M90 512v111h512v-111h-512z" />
<glyph unicode="&#xae;" horiz-adv-x="925" d="M543 1042q0 31 -21.5 50.5t-60.5 19.5h-58v-141h58q39 0 60.5 19t21.5 52zM600 709l-133 194h-64v-192h-73v467h139q59 0 103 -38t44 -98q0 -41 -20.5 -72.5t-52.5 -47.5l119 -170zM780 946q0 72 -24.5 130.5t-66.5 100.5t-100.5 65.5t-125.5 23.5q-68 0 -126 -23.5 t-101 -65.5t-67 -100.5t-24 -130.5t24 -130t67 -100t101 -65.5t126 -23.5t126 23.5t100 65.5t66.5 100t24.5 130zM850 946q0 -84 -29.5 -154.5t-82 -122t-123 -80t-152.5 -28.5t-152.5 28.5t-123 80t-82 122t-29.5 154.5t29.5 154.5t82 122t123 79t152.5 27.5t152.5 -27.5 t123 -79t82 -122t29.5 -154.5z" />
<glyph unicode="&#xaf;" horiz-adv-x="737" d="M193 1079v113h352v-113h-352z" />
<glyph unicode="&#x2c9;" horiz-adv-x="737" d="M193 1079v113h352v-113h-352z" />
<glyph unicode="&#xb0;" horiz-adv-x="501" d="M369 1139q0 53 -33 85.5t-84 32.5q-53 0 -86 -32.5t-33 -85.5q0 -51 33 -84t86 -33q51 0 84 33t33 84zM446 1139q0 -39 -15 -75t-42 -61.5t-61.5 -41t-75.5 -15.5q-39 0 -75 15.5t-63.5 41t-43 61.5t-15.5 75q0 41 15.5 75.5t43 61.5t63.5 42t75 15q41 0 75.5 -15 t61.5 -42t42 -61.5t15 -75.5z" />
<glyph unicode="&#xb1;" horiz-adv-x="1751" d="M1563 -27q-27 8 -55.5 24.5t-51 44.5t-38 69t-15.5 96v1116q-27 16 -67 24.5t-99 8.5q-63 0 -117.5 -23.5t-94.5 -67.5t-63.5 -106.5t-23.5 -140.5v-90h229l-24 -107h-205v-821h-131v821h-494v-821h-131v821h-147v107h147v69q0 109 30 190t82 136t125 83t161 28 q66 0 113.5 -12.5t82.5 -32.5l-26 -111q-29 16 -77 30.5t-106 14.5q-113 0 -183.5 -83t-70.5 -218v-94h494v65q0 111 33.5 199t93 148.5t141.5 93t178 32.5q88 0 158 -19.5t123 -62.5v-1163q0 -66 35 -107.5t84 -52.5z" />
<glyph unicode="&#xb2;" horiz-adv-x="729" d="M76 506v29q219 186 316 317t97 221q0 86 -52 130t-142 44q-106 0 -184 -49l-23 82q35 23 89 36t118 13q141 0 216 -70.5t75 -187.5q0 -102 -85 -228t-233 -255h357v-82h-549z" />
<glyph unicode="&#xb3;" horiz-adv-x="649" d="M561 764q0 -57 -20.5 -106.5t-58.5 -85t-93 -56t-127 -20.5q-43 0 -85 10t-75 31l-26 98q47 -33 97 -45t89 -12q82 0 142.5 49t60.5 137q0 68 -50 113t-118 45q-10 0 -23.5 -1t-23.5 -6l-21 82q74 14 121 56.5t47 85.5q0 49 -34.5 78.5t-96.5 29.5q-76 0 -147 -37l-23 82 q78 37 170 37q104 0 166 -51t62 -139q0 -49 -28 -90t-75 -64q66 -16 118 -75.5t52 -145.5z" />
<glyph unicode="&#xb4;" horiz-adv-x="737" d="M567 1221q-76 -66 -162 -104t-178 -60l-73 71q104 29 207.5 82.5t179.5 130.5z" />
<glyph unicode="&#xb5;" horiz-adv-x="1126" d="M520 51q-51 23 -77.5 54.5t-45.5 70.5l-264 572v-697h387zM993 795h-809l494 -365q-90 -35 -138 -95.5t-48 -113.5q0 -66 29.5 -104.5t76.5 -65.5h395v744zM80 0v928h967v-928h-967z" />
<glyph unicode="&#x3bc;" horiz-adv-x="1126" d="M520 51q-51 23 -77.5 54.5t-45.5 70.5l-264 572v-697h387zM993 795h-809l494 -365q-90 -35 -138 -95.5t-48 -113.5q0 -66 29.5 -104.5t76.5 -65.5h395v744zM80 0v928h967v-928h-967z" />
<glyph unicode="&#xb6;" horiz-adv-x="835" d="M627 1208v-1314q0 -72 -20.5 -133.5t-54.5 -108.5t-79 -79t-96 -44l-84 82q98 23 150.5 94.5t52.5 198.5v737h-25q-74 0 -141.5 21.5t-119.5 63.5t-83 104.5t-31 146.5t32 147.5t84 106.5t119.5 64.5t141.5 21.5h291v-109h-137z" />
<glyph unicode="&#xb7;" horiz-adv-x="382" d="M285 555q0 -14 -10.5 -33.5t-24.5 -37t-31.5 -30t-30.5 -12.5q-12 0 -29.5 12.5t-31.5 30t-24.5 37t-10.5 33.5q0 12 10.5 31.5t24.5 37t31.5 30t29.5 12.5t30 -12.5t32 -30t24.5 -37t10.5 -31.5z" />
<glyph unicode="&#x2219;" horiz-adv-x="382" d="M285 555q0 -14 -10.5 -33.5t-24.5 -37t-31.5 -30t-30.5 -12.5q-12 0 -29.5 12.5t-31.5 30t-24.5 37t-10.5 33.5q0 12 10.5 31.5t24.5 37t31.5 30t29.5 12.5t30 -12.5t32 -30t24.5 -37t10.5 -31.5z" />
<glyph unicode="&#xb8;" horiz-adv-x="737" d="M563 -262q0 -49 -19.5 -87t-50 -62.5t-68.5 -37t-77 -12.5q-82 0 -153 49l18 78q35 -27 67.5 -36t69.5 -9q43 0 80 28.5t37 84.5q0 59 -40 86.5t-87 27.5h-23q-12 0 -24 -4l39 160h63l-18 -72q33 -2 65.5 -15t59 -38.5t44 -60.5t17.5 -80z" />
<glyph unicode="&#xb9;" horiz-adv-x="524" d="M248 508v725l-164 -12l22 88l238 20v-821h-96z" />
<glyph unicode="&#xba;" horiz-adv-x="931" d="M745 942q0 63 -21.5 116.5t-59 92.5t-89 60.5t-108.5 21.5t-108.5 -21.5t-90.5 -60.5t-60.5 -92t-21.5 -117q0 -63 21.5 -116.5t60.5 -92.5t90.5 -60.5t108.5 -21.5t108.5 21.5t89 60.5t59 92.5t21.5 116.5zM551 309q0 -12 -8 -29.5t-21.5 -34t-28 -27.5t-26.5 -11 t-26.5 11t-27 27.5t-21.5 34t-9 29.5t9 30.5t21.5 35t27 28t26.5 11.5t26.5 -11.5t28 -28t21.5 -35t8 -30.5zM860 942q0 -84 -29.5 -155.5t-83 -123t-125 -80t-155.5 -28.5t-156.5 28.5t-126 80t-83 123t-29.5 155.5t29.5 155.5t83 123t126 80t156.5 28.5t155.5 -28.5 t125 -80t83 -123t29.5 -155.5z" />
<glyph unicode="&#xbb;" horiz-adv-x="849" d="M453 567q-104 -66 -189.5 -158t-138.5 -188l-74 74q37 78 95.5 148.5t123.5 123.5q-66 53 -124 124t-95 149l74 73q53 -96 138.5 -187t189.5 -159zM842 567q-102 -66 -188.5 -158t-139.5 -188l-74 74q37 78 94.5 148.5t122.5 123.5q-66 53 -123 124t-94 149l74 73 q53 -96 139.5 -187t188.5 -159z" />
<glyph unicode="&#xbc;" horiz-adv-x="1474" d="M1155 680l-42 -62q-22 -31 -46 -61l-186 -238h272v240q0 57 6 119zM248 508v725l-164 -12l22 88l238 20v-821h-96zM188 -29l-55 45l1067 1319l53 -47zM1249 238v-238h-96v238h-358l-23 79l397 496h80v-494h111v-81h-111z" />
<glyph unicode="&#xbd;" horiz-adv-x="1605" d="M248 508v725l-164 -12l22 88l238 20v-821h-96zM188 -29l-55 47l1067 1317l53 -47zM954 0v27q217 186 315.5 318t98.5 222q0 86 -52 130t-145 44q-53 0 -99 -13t-85 -36l-22 80q37 23 91 37t115 14q141 0 216 -70.5t75 -189.5q0 -100 -84 -226t-231 -255h354v-82h-547z " />
<glyph unicode="&#xbe;" horiz-adv-x="1562" d="M1264 680l-42 -62q-22 -31 -46 -61l-187 -238h273v240q0 57 6 119zM561 764q0 -57 -20.5 -106.5t-58.5 -85t-93 -56t-127 -20.5q-43 0 -85 10t-75 31l-26 98q47 -33 97 -45t89 -12q82 0 142.5 49t60.5 137q0 68 -50 113t-118 45q-10 0 -23.5 -1t-23.5 -6l-21 82 q74 14 121 56.5t47 85.5q0 49 -34.5 78.5t-96.5 29.5q-76 0 -147 -37l-23 82q78 37 170 37q104 0 166 -51t62 -139q0 -49 -28 -90t-75 -64q66 -16 118 -75.5t52 -145.5zM297 -29l-57 45l1069 1319l53 -47zM1358 238v-238h-96v238h-361l-20 79l397 496h80v-494h110v-81h-110z " />
<glyph unicode="&#xbf;" horiz-adv-x="784" d="M729 -8q-45 -43 -114.5 -72t-159.5 -29q-80 0 -148.5 24t-119 69t-78 110.5t-27.5 147.5q0 104 56.5 188t135.5 168q59 61 87 125.5t28 138.5q0 35 -2 70t-8 61l110 -28q6 -25 11.5 -55.5t5.5 -63.5q0 -98 -36 -182t-99 -150q-66 -66 -110 -131.5t-44 -155.5 q0 -43 16.5 -83t47 -69.5t74.5 -48t98 -18.5q80 0 140 29t107 76zM524 1217q0 -12 -10 -32t-24.5 -37.5t-32 -29.5t-29.5 -12q-14 0 -30.5 12t-31 29.5t-24.5 37t-10 32.5q0 14 10 33.5t24.5 37t31 29.5t30.5 12q12 0 29.5 -12t32 -29.5t24.5 -37t10 -33.5z" />
<glyph unicode="&#xc0;" d="M686 881q-18 45 -35.5 96l-34.5 104h-4q-16 -53 -34.5 -104l-36.5 -96l-158 -402h459zM1038 0l-149 367h-553l-148 -367h-135l541 1333h43l541 -1333h-140zM670 1467q-92 23 -178.5 60.5t-161.5 103.5l26 120q76 -78 179.5 -131t207.5 -82z" />
<glyph unicode="&#xc1;" d="M686 881q-18 45 -35.5 96l-34.5 104h-4q-16 -53 -34.5 -104l-36.5 -96l-158 -402h459zM1038 0l-149 367h-553l-148 -367h-135l541 1333h43l541 -1333h-140zM893 1631q-76 -66 -162 -104t-178 -60l-73 71q104 29 207.5 82.5t179.5 130.5z" />
<glyph unicode="&#xc2;" d="M686 881q-18 45 -35.5 96l-34.5 104h-4q-16 -53 -34.5 -104l-36.5 -96l-158 -402h459zM1038 0l-149 367h-553l-148 -367h-135l541 1333h43l541 -1333h-140zM811 1467q-59 29 -106 61.5t-88 79.5q-41 -47 -89.5 -80t-107.5 -61l-70 69q78 35 145.5 95.5t121.5 132.5 q51 -72 118.5 -132.5t147.5 -95.5z" />
<glyph unicode="&#xc3;" d="M686 881q-18 45 -35.5 96l-34.5 104h-4q-16 -53 -34.5 -104l-36.5 -96l-158 -402h459zM1038 0l-149 367h-553l-148 -367h-135l541 1333h43l541 -1333h-140zM873 1567q-59 -43 -130 -68.5t-149 -29.5l-32 112q-57 -4 -121 -29.5t-117 -60.5l22 107q61 39 132 66.5 t147 31.5l33 -115q59 4 121.5 31t115.5 60z" />
<glyph unicode="&#xc4;" d="M686 881q-18 45 -35.5 96l-34.5 104h-4q-16 -53 -34.5 -104l-36.5 -96l-158 -402h459zM1038 0l-149 367h-553l-148 -367h-135l541 1333h43l541 -1333h-140zM563 1569q0 -12 -9 -29.5t-21.5 -34t-27.5 -27.5t-28 -11q-10 0 -25.5 11t-28.5 27.5t-22.5 34t-9.5 29.5 t9.5 30.5t22.5 35t28.5 28t25.5 11.5q12 0 27.5 -11.5t28 -28t21.5 -35t9 -30.5zM844 1569q0 -12 -8 -29.5t-21.5 -34t-28 -27.5t-26.5 -11t-27.5 11t-28 27.5t-21.5 34t-9 29.5t9 30.5t21.5 35t28 28t27.5 11.5t26.5 -11.5t28 -28t21.5 -35t8 -30.5z" />
<glyph unicode="&#xc5;" d="M686 881q-18 45 -35.5 96l-34.5 104h-4q-16 -53 -34.5 -104l-36.5 -96l-158 -402h459zM1038 0l-149 367h-553l-148 -367h-135l541 1333h43l541 -1333h-140zM740 1653q0 53 -35 87t-88 34t-88 -34t-35 -87t34.5 -88t88.5 -35q53 0 88 35t35 88zM823 1653q0 -43 -16 -81 t-45 -65.5t-65.5 -44t-79.5 -16.5t-80 16.5t-65.5 44t-45 65.5t-16.5 81t16.5 80t45 64.5t65.5 44t80 16.5t79.5 -16.5t65.5 -44t45 -64.5t16 -80z" />
<glyph unicode="&#xc6;" horiz-adv-x="1638" d="M846 1186l-60 -120l-63 -118l-264 -459h389v463v118q0 52 2 114zM848 0v377h-449l-219 -377h-139l758 1307h729v-119h-543v-471h445v-119h-445v-479h614v-119h-751z" />
<glyph unicode="&#xc7;" horiz-adv-x="1224" d="M1137 1120q-57 37 -148.5 63.5t-195.5 26.5q-111 0 -213.5 -37.5t-181.5 -110.5t-126 -176.5t-47 -232.5t47 -231.5t125 -175t180.5 -110.5t215.5 -38q227 0 368 88l-33 -139q-61 -35 -142 -51t-204 -19l-12 -45q33 -2 65.5 -15t59.5 -38.5t44 -60.5t17 -80 q0 -49 -19 -87t-50 -62.5t-69 -37t-77 -12.5q-82 0 -153 49l18 78q35 -27 68 -36t69 -9q43 0 80 28.5t37 84.5q0 59 -40 86.5t-87 27.5h-22q-12 0 -25 -4l33 136q-125 10 -238.5 61t-202 138t-140.5 207t-52 267q0 160 59.5 285t156.5 212t222 133t254 46q127 0 223.5 -24.5 t161.5 -63.5z" />
<glyph unicode="&#xc8;" horiz-adv-x="940" d="M141 0v1307h682v-119h-544v-471h446v-119h-446v-479h616v-119h-754zM555 1467q-92 23 -178.5 60.5t-161.5 103.5l26 120q76 -78 179.5 -131t207.5 -82z" />
<glyph unicode="&#xc9;" horiz-adv-x="940" d="M141 0v1307h682v-119h-544v-471h446v-119h-446v-479h616v-119h-754zM778 1631q-76 -66 -162 -104t-178 -60l-73 71q104 29 207.5 82.5t179.5 130.5z" />
<glyph unicode="&#xca;" horiz-adv-x="940" d="M141 0v1307h682v-119h-544v-471h446v-119h-446v-479h616v-119h-754zM696 1467q-59 29 -106 61.5t-88 79.5q-41 -47 -89.5 -80t-107.5 -61l-70 69q78 35 145.5 95.5t121.5 132.5q51 -72 118.5 -132.5t147.5 -95.5z" />
<glyph unicode="&#xcb;" horiz-adv-x="940" d="M141 0v1307h682v-119h-544v-471h446v-119h-446v-479h616v-119h-754zM446 1569q0 -12 -9 -29.5t-21.5 -34t-27.5 -27.5t-28 -11q-10 0 -25.5 11t-28.5 27.5t-22.5 34t-9.5 29.5t9.5 30.5t22.5 35t28.5 28t25.5 11.5q12 0 27.5 -11.5t28 -28t21.5 -35t9 -30.5zM727 1569 q0 -12 -8 -29.5t-21.5 -34t-28 -27.5t-26.5 -11t-27.5 11t-28 27.5t-21.5 34t-9 29.5t9 30.5t21.5 35t28 28t27.5 11.5t26.5 -11.5t28 -28t21.5 -35t8 -30.5z" />
<glyph unicode="&#xcc;" horiz-adv-x="489" d="M176 0v1307h137v-1307h-137zM342 1467q-92 23 -178.5 60.5t-161.5 103.5l26 120q76 -78 179.5 -131t207.5 -82z" />
<glyph unicode="&#xcd;" horiz-adv-x="489" d="M176 0v1307h137v-1307h-137zM491 1631q-76 -66 -162 -104t-178 -60l-73 71q104 29 207.5 82.5t179.5 130.5z" />
<glyph unicode="&#xce;" horiz-adv-x="489" d="M176 0v1307h137v-1307h-137zM442 1467q-59 29 -106 61.5t-88 79.5q-41 -47 -89.5 -80t-107.5 -61l-70 69q78 35 145.5 95.5t121.5 132.5q51 -72 118.5 -132.5t147.5 -95.5z" />
<glyph unicode="&#xcf;" horiz-adv-x="489" d="M176 0v1307h137v-1307h-137zM194 1569q0 -12 -9 -29.5t-21.5 -34t-27.5 -27.5t-28 -11q-10 0 -25.5 11t-28.5 27.5t-22.5 34t-9.5 29.5t9.5 30.5t22.5 35t28.5 28t25.5 11.5q12 0 27.5 -11.5t28 -28t21.5 -35t9 -30.5zM475 1569q0 -12 -8 -29.5t-21.5 -34t-28 -27.5 t-26.5 -11t-27.5 11t-28 27.5t-21.5 34t-9 29.5t9 30.5t21.5 35t28 28t27.5 11.5t26.5 -11.5t28 -28t21.5 -35t8 -30.5z" />
<glyph unicode="&#xd0;" horiz-adv-x="1327" d="M1098 653q0 131 -46 230.5t-127 167t-192.5 102.5t-240.5 35h-183v-471h287l-25 -107h-262v-491h183q129 0 240.5 34.5t192.5 102.5t127 167t46 230zM1237 653q0 -156 -57.5 -277.5t-155.5 -204.5t-230 -127t-280 -44h-342v610h-170v107h170v590h342q147 0 279.5 -44 t230.5 -127t155.5 -205t57.5 -278z" />
<glyph unicode="&#xd1;" horiz-adv-x="1419" d="M1241 -29l-643 738l-168 195l-151 181l-5 -2q4 -92 5 -182v-180v-721h-138v1307h97l606 -695l149 -174l148 -176l4 2q-4 88 -4 175v171v697h137v-1336h-37zM971 1567q-59 -43 -130 -68.5t-149 -29.5l-32 112q-57 -4 -121 -29.5t-117 -60.5l22 107q61 39 132 66.5 t147 31.5l33 -115q59 4 121.5 31t115.5 60z" />
<glyph unicode="&#xd2;" horiz-adv-x="1540" d="M1315 655q0 127 -45 229.5t-121 174t-174 111.5t-205 40q-106 0 -205.5 -40t-174.5 -111.5t-120 -174t-45 -229.5q0 -125 45 -228t120 -176t174.5 -113t205.5 -40t204.5 40t174.5 113t121 176t45 228zM1454 655q0 -154 -56.5 -278.5t-150.5 -213.5t-218 -137.5 t-259 -48.5t-259 48.5t-218 137.5t-150.5 214t-56.5 278q0 152 56.5 276t150.5 213t218 137t259 48t259 -48t218 -137t150.5 -213t56.5 -276zM807 1467q-92 23 -178.5 60.5t-161.5 103.5l26 120q76 -78 179.5 -131t207.5 -82z" />
<glyph unicode="&#xd3;" horiz-adv-x="1540" d="M1315 655q0 127 -45 229.5t-121 174t-174 111.5t-205 40q-106 0 -205.5 -40t-174.5 -111.5t-120 -174t-45 -229.5q0 -125 45 -228t120 -176t174.5 -113t205.5 -40t204.5 40t174.5 113t121 176t45 228zM1454 655q0 -154 -56.5 -278.5t-150.5 -213.5t-218 -137.5 t-259 -48.5t-259 48.5t-218 137.5t-150.5 214t-56.5 278q0 152 56.5 276t150.5 213t218 137t259 48t259 -48t218 -137t150.5 -213t56.5 -276zM1042 1631q-76 -66 -162 -104t-178 -60l-73 71q104 29 207.5 82.5t179.5 130.5z" />
<glyph unicode="&#xd4;" horiz-adv-x="1540" d="M1315 655q0 127 -45 229.5t-121 174t-174 111.5t-205 40q-106 0 -205.5 -40t-174.5 -111.5t-120 -174t-45 -229.5q0 -125 45 -228t120 -176t174.5 -113t205.5 -40t204.5 40t174.5 113t121 176t45 228zM1454 655q0 -154 -56.5 -278.5t-150.5 -213.5t-218 -137.5 t-259 -48.5t-259 48.5t-218 137.5t-150.5 214t-56.5 278q0 152 56.5 276t150.5 213t218 137t259 48t259 -48t218 -137t150.5 -213t56.5 -276zM962 1467q-59 29 -106 61.5t-88 79.5q-41 -47 -89.5 -80t-107.5 -61l-70 69q78 35 145.5 95.5t121.5 132.5q51 -72 118.5 -132.5 t147.5 -95.5z" />
<glyph unicode="&#xd5;" horiz-adv-x="1540" d="M1315 655q0 127 -45 229.5t-121 174t-174 111.5t-205 40q-106 0 -205.5 -40t-174.5 -111.5t-120 -174t-45 -229.5q0 -125 45 -228t120 -176t174.5 -113t205.5 -40t204.5 40t174.5 113t121 176t45 228zM1454 655q0 -154 -56.5 -278.5t-150.5 -213.5t-218 -137.5 t-259 -48.5t-259 48.5t-218 137.5t-150.5 214t-56.5 278q0 152 56.5 276t150.5 213t218 137t259 48t259 -48t218 -137t150.5 -213t56.5 -276zM1022 1567q-59 -43 -130 -68.5t-149 -29.5l-32 112q-57 -4 -121 -29.5t-117 -60.5l22 107q61 39 132 66.5t147 31.5l33 -115 q59 4 121.5 31t115.5 60z" />
<glyph unicode="&#xd6;" horiz-adv-x="1540" d="M1315 655q0 127 -45 229.5t-121 174t-174 111.5t-205 40q-106 0 -205.5 -40t-174.5 -111.5t-120 -174t-45 -229.5q0 -125 45 -228t120 -176t174.5 -113t205.5 -40t204.5 40t174.5 113t121 176t45 228zM1454 655q0 -154 -56.5 -278.5t-150.5 -213.5t-218 -137.5 t-259 -48.5t-259 48.5t-218 137.5t-150.5 214t-56.5 278q0 152 56.5 276t150.5 213t218 137t259 48t259 -48t218 -137t150.5 -213t56.5 -276zM712 1569q0 -12 -9 -29.5t-21.5 -34t-27.5 -27.5t-28 -11q-10 0 -25.5 11t-28.5 27.5t-22.5 34t-9.5 29.5t9.5 30.5t22.5 35 t28.5 28t25.5 11.5q12 0 27.5 -11.5t28 -28t21.5 -35t9 -30.5zM993 1569q0 -12 -8 -29.5t-21.5 -34t-28 -27.5t-26.5 -11t-27.5 11t-28 27.5t-21.5 34t-9 29.5t9 30.5t21.5 35t28 28t27.5 11.5t26.5 -11.5t28 -28t21.5 -35t8 -30.5z" />
<glyph unicode="&#xd7;" horiz-adv-x="974" d="M750 236l-258 258l-259 -261l-65 66l260 258l-258 258l63 66l259 -260l256 256l63 -64l-256 -256l258 -258z" />
<glyph unicode="&#xd8;" horiz-adv-x="1540" d="M1085 1112q-70 47 -149.5 72.5t-165.5 25.5q-106 0 -205.5 -40t-174.5 -111.5t-120 -174t-45 -229.5t45 -229t121 -176zM1315 655q0 125 -44 227.5t-120 174.5l-694 -860q139 -98 313 -99q106 0 204.5 40t174.5 113t121 176t45 228zM1454 655q0 -154 -56.5 -278.5 t-150.5 -213.5t-218 -137.5t-259 -48.5q-109 0 -208 31t-185 88l-123 -151l-66 55l121 147q-102 92 -162.5 220.5t-60.5 287.5q0 152 56.5 276t150.5 213t218 137t259 48q109 0 209 -30.5t186 -88.5l121 150l66 -55l-119 -148q100 -88 160.5 -215t60.5 -287z" />
<glyph unicode="&#xd9;" horiz-adv-x="1302" d="M1161 453q0 -111 -37 -199t-104.5 -149.5t-160.5 -94.5t-208 -33q-113 0 -207 33t-161.5 94.5t-104.5 149.5t-37 199v854h138v-842q0 -172 97 -268.5t277 -96.5q178 0 276.5 96.5t98.5 268.5v842h133v-854zM697 1467q-92 23 -178.5 60.5t-161.5 103.5l26 120 q76 -78 179.5 -131t207.5 -82z" />
<glyph unicode="&#xda;" horiz-adv-x="1302" d="M1161 453q0 -111 -37 -199t-104.5 -149.5t-160.5 -94.5t-208 -33q-113 0 -207 33t-161.5 94.5t-104.5 149.5t-37 199v854h138v-842q0 -172 97 -268.5t277 -96.5q178 0 276.5 96.5t98.5 268.5v842h133v-854zM940 1631q-76 -66 -162 -104t-178 -60l-73 71 q104 29 207.5 82.5t179.5 130.5z" />
<glyph unicode="&#xdb;" horiz-adv-x="1302" d="M1161 453q0 -111 -37 -199t-104.5 -149.5t-160.5 -94.5t-208 -33q-113 0 -207 33t-161.5 94.5t-104.5 149.5t-37 199v854h138v-842q0 -172 97 -268.5t277 -96.5q178 0 276.5 96.5t98.5 268.5v842h133v-854zM848 1467q-59 29 -106 61.5t-88 79.5q-41 -47 -89.5 -80 t-107.5 -61l-70 69q78 35 145.5 95.5t121.5 132.5q51 -72 118.5 -132.5t147.5 -95.5z" />
<glyph unicode="&#xdc;" horiz-adv-x="1302" d="M1161 453q0 -111 -37 -199t-104.5 -149.5t-160.5 -94.5t-208 -33q-113 0 -207 33t-161.5 94.5t-104.5 149.5t-37 199v854h138v-842q0 -172 97 -268.5t277 -96.5q178 0 276.5 96.5t98.5 268.5v842h133v-854zM600 1569q0 -12 -9 -29.5t-21.5 -34t-27.5 -27.5t-28 -11 q-10 0 -25.5 11t-28.5 27.5t-22.5 34t-9.5 29.5t9.5 30.5t22.5 35t28.5 28t25.5 11.5q12 0 27.5 -11.5t28 -28t21.5 -35t9 -30.5zM881 1569q0 -12 -8 -29.5t-21.5 -34t-28 -27.5t-26.5 -11t-27.5 11t-28 27.5t-21.5 34t-9 29.5t9 30.5t21.5 35t28 28t27.5 11.5t26.5 -11.5 t28 -28t21.5 -35t8 -30.5z" />
<glyph unicode="&#xdd;" horiz-adv-x="1183" d="M657 604v-604h-135v604l-497 703h151l283 -400l67 -98l68 -100h4l66 99l69 99l285 400h141zM868 1631q-76 -66 -162 -104t-178 -60l-73 71q104 29 207.5 82.5t179.5 130.5z" />
<glyph unicode="&#xde;" horiz-adv-x="925" d="M750 801q0 55 -21.5 99t-57.5 74t-84 46t-104 16h-204v-471h213q51 0 98 15.5t82 46t56.5 75t21.5 99.5zM889 801q0 -84 -32 -149.5t-84 -111.5t-119.5 -70t-139.5 -24h-235v-446h-138v1311h138v-156h227q74 0 143.5 -23.5t122.5 -69.5t85 -111.5t32 -149.5z" />
<glyph unicode="&#xdf;" horiz-adv-x="1071" d="M1004 242q0 -117 -85 -189.5t-233 -72.5q-86 0 -154.5 22.5t-109.5 52.5v129q53 -41 116.5 -67.5t149.5 -26.5q78 0 132 39t54 107q0 66 -47 107.5t-125 70.5q-129 47 -198.5 112.5t-69.5 175.5q0 113 85 180.5t216 67.5q8 23 13.5 55.5t5.5 61.5q0 51 -14.5 102.5 t-44 93.5t-75 67.5t-106.5 25.5t-107.5 -25.5t-77 -71t-45 -105.5t-14.5 -128v-1026h-129v995q0 238 101.5 354.5t271.5 116.5q84 0 151.5 -29.5t115.5 -83t75 -130t27 -172.5q0 -49 -11.5 -104.5t-23.5 -92.5q-139 0 -214 -36t-75 -111q0 -61 42 -98.5t120 -65.5 q133 -47 208 -116.5t75 -184.5z" />
<glyph unicode="&#xe0;" horiz-adv-x="913" d="M465 1085q-78 20 -150.5 53t-138.5 87l23 104q66 -66 153.5 -112t175.5 -70zM621 455l-228 -21q-90 -8 -141 -57t-51 -125q0 -70 51 -116t125 -46q41 0 85 17.5t78.5 48t57.5 74.5t23 100v125zM782 -20q-47 10 -88 49t-51 92q-37 -66 -110.5 -103.5t-159.5 -37.5 q-66 0 -120 21.5t-94 58t-61.5 86t-21.5 106.5q0 68 25.5 120t66.5 87t94 54t111 26l248 24v88q0 86 -57.5 135.5t-162.5 49.5q-66 0 -132 -19.5t-113 -50.5l-27 108q53 37 127 55.5t152 18.5q74 0 137 -20.5t109 -59.5t72 -97t26 -132v-424q0 -70 34.5 -106.5t79.5 -45.5z " />
<glyph unicode="&#xe1;" horiz-adv-x="913" d="M631 1225q-66 -53 -138.5 -86t-150.5 -54l-63 62q88 25 176 71t153 111zM621 455l-228 -21q-90 -8 -141 -57t-51 -125q0 -70 51 -116t125 -46q41 0 85 17.5t78.5 48t57.5 74.5t23 100v125zM782 -20q-47 10 -88 49t-51 92q-37 -66 -110.5 -103.5t-159.5 -37.5 q-66 0 -120 21.5t-94 58t-61.5 86t-21.5 106.5q0 68 25.5 120t66.5 87t94 54t111 26l248 24v88q0 86 -57.5 135.5t-162.5 49.5q-66 0 -132 -19.5t-113 -50.5l-27 108q53 37 127 55.5t152 18.5q74 0 137 -20.5t109 -59.5t72 -97t26 -132v-424q0 -70 34.5 -106.5t79.5 -45.5z " />
<glyph unicode="&#xe2;" horiz-adv-x="913" d="M582 1087q-51 23 -91 50.5t-75 68.5q-35 -41 -76 -68.5t-92 -50.5l-60 58q68 31 125.5 82t102.5 112q43 -61 100 -112t125 -82zM621 455l-228 -21q-90 -8 -141 -57t-51 -125q0 -70 51 -116t125 -46q41 0 85 17.5t78.5 48t57.5 74.5t23 100v125zM782 -20q-47 10 -88 49 t-51 92q-37 -66 -110.5 -103.5t-159.5 -37.5q-66 0 -120 21.5t-94 58t-61.5 86t-21.5 106.5q0 68 25.5 120t66.5 87t94 54t111 26l248 24v88q0 86 -57.5 135.5t-162.5 49.5q-66 0 -132 -19.5t-113 -50.5l-27 108q53 37 127 55.5t152 18.5q74 0 137 -20.5t109 -59.5t72 -97 t26 -132v-424q0 -70 34.5 -106.5t79.5 -45.5z" />
<glyph unicode="&#xe3;" horiz-adv-x="913" d="M659 1171q-51 -37 -110.5 -58t-124.5 -26l-29 97q-47 -4 -102 -25.5t-100 -50.5l20 90q53 33 112.5 56.5t123.5 27.5l28 -98q49 4 103.5 26.5t99.5 51.5zM621 455l-228 -21q-90 -8 -141 -57t-51 -125q0 -70 51 -116t125 -46q41 0 85 17.5t78.5 48t57.5 74.5t23 100v125z M782 -20q-47 10 -88 49t-51 92q-37 -66 -110.5 -103.5t-159.5 -37.5q-66 0 -120 21.5t-94 58t-61.5 86t-21.5 106.5q0 68 25.5 120t66.5 87t94 54t111 26l248 24v88q0 86 -57.5 135.5t-162.5 49.5q-66 0 -132 -19.5t-113 -50.5l-27 108q53 37 127 55.5t152 18.5 q74 0 137 -20.5t109 -59.5t72 -97t26 -132v-424q0 -70 34.5 -106.5t79.5 -45.5z" />
<glyph unicode="&#xe4;" horiz-adv-x="913" d="M375 1174q0 -10 -7.5 -25.5t-18.5 -29t-24.5 -23t-23.5 -9.5q-8 0 -21.5 9.5t-24.5 23t-19.5 28.5t-8.5 26q0 12 8.5 26t19.5 28.5t24.5 24t21.5 9.5q10 0 23.5 -9.5t24.5 -24t18.5 -28.5t7.5 -26zM612 1174q0 -10 -7 -25.5t-17 -29t-23.5 -23t-23.5 -9.5t-22.5 9.5 t-24 23t-18.5 28.5t-7 26q0 12 7 26t18.5 28.5t23.5 24t23 9.5q10 0 23.5 -9.5t23.5 -24t17 -28.5t7 -26zM621 455l-228 -21q-90 -8 -141 -57t-51 -125q0 -70 51 -116t125 -46q41 0 85 17.5t78.5 48t57.5 74.5t23 100v125zM782 -20q-47 10 -88 49t-51 92 q-37 -66 -110.5 -103.5t-159.5 -37.5q-66 0 -120 21.5t-94 58t-61.5 86t-21.5 106.5q0 68 25.5 120t66.5 87t94 54t111 26l248 24v88q0 86 -57.5 135.5t-162.5 49.5q-66 0 -132 -19.5t-113 -50.5l-27 108q53 37 127 55.5t152 18.5q74 0 137 -20.5t109 -59.5t72 -97t26 -132 v-424q0 -70 34.5 -106.5t79.5 -45.5z" />
<glyph unicode="&#xe5;" horiz-adv-x="913" d="M518 1245q0 45 -29.5 74t-74.5 29t-75 -29t-30 -74t30 -74.5t75 -29.5t74.5 29.5t29.5 74.5zM590 1245q0 -37 -14.5 -68.5t-38 -56t-55 -38t-68.5 -13.5q-35 0 -67 13.5t-55.5 38t-37.5 56t-14 68.5t14 69t37.5 55.5t55.5 36.5t67 13q37 0 68.5 -13t55 -36.5t38 -55.5 t14.5 -69zM621 455l-228 -21q-90 -8 -141 -57t-51 -125q0 -70 51 -116t125 -46q41 0 85 17.5t78.5 48t57.5 74.5t23 100v125zM782 -20q-47 10 -88 49t-51 92q-37 -66 -110.5 -103.5t-159.5 -37.5q-66 0 -120 21.5t-94 58t-61.5 86t-21.5 106.5q0 68 25.5 120t66.5 87t94 54 t111 26l248 24v88q0 86 -57.5 135.5t-162.5 49.5q-66 0 -132 -19.5t-113 -50.5l-27 108q53 37 127 55.5t152 18.5q74 0 137 -20.5t109 -59.5t72 -97t26 -132v-424q0 -70 34.5 -106.5t79.5 -45.5z" />
<glyph unicode="&#xe6;" horiz-adv-x="1536" d="M621 457l-218 -21q-98 -10 -150 -58t-52 -126q0 -72 51 -117t125 -45q41 0 85 17.5t78.5 48t57.5 74.5t23 100v127zM1329 596q0 41 -16.5 83t-48 77t-78.5 57.5t-111 22.5q-57 0 -108.5 -22.5t-93.5 -59.5t-69.5 -85t-35.5 -100h559q2 9 2 27zM1460 602q0 -35 -6 -63 l-76 -76h-620q-4 -70 20.5 -136.5t72.5 -117.5t117.5 -83t155.5 -32q84 0 154 21.5t137 70.5l-37 -143q-53 -31 -117.5 -47t-150.5 -16q-129 0 -234.5 57t-170.5 156q-43 -104 -132.5 -158.5t-195.5 -54.5q-68 0 -124 21.5t-95 58t-60.5 87t-21.5 107.5q0 68 24.5 120 t66.5 87t97 55.5t119 26.5l238 22v86q0 86 -57.5 135.5t-162.5 49.5q-66 0 -132 -19.5t-113 -50.5l-27 108q53 37 127 55.5t152 18.5q115 0 198.5 -49t112.5 -141q61 90 154.5 140t195.5 50q96 0 169 -29.5t122 -78.5t74.5 -112t25.5 -126z" />
<glyph unicode="&#xe7;" horiz-adv-x="935" d="M838 762q-53 35 -120 53.5t-138 18.5q-78 0 -146.5 -27t-119 -76t-79 -117.5t-28.5 -150.5t29.5 -149.5t80 -117t119 -76t148.5 -26.5q72 0 136 15.5t136 52.5l-33 -131q-51 -29 -123.5 -41.5t-132.5 -9.5l-10 -39q29 0 56.5 -12.5t50 -33t37 -51t14.5 -67.5 q0 -43 -16.5 -75t-42 -52.5t-57.5 -30.5t-64 -10q-74 0 -134 41l17 65q31 -23 58.5 -30t58.5 -7q37 0 68.5 25t31.5 72t-34 71.5t-73 24.5q-10 0 -21 1t-22 -3l29 115q-90 10 -170 48t-139.5 99.5t-94 145t-34.5 186.5q0 111 40 201t108.5 152.5t158.5 97t190 34.5 q90 0 164 -20.5t127 -50.5z" />
<glyph unicode="&#xe8;" horiz-adv-x="989" d="M594 1085q-78 20 -150.5 53t-138.5 87l23 104q66 -66 153.5 -112t175.5 -70zM784 596q0 41 -16 83t-48 77t-79 57.5t-111 22.5q-57 0 -108 -22.5t-93 -59.5t-70 -85t-38 -100h561q2 9 2 27zM913 602v-33q0 -16 -4 -30l-78 -76h-620q-4 -70 20.5 -136.5t73.5 -117.5 t119 -83t156 -32q84 0 153.5 21.5t136.5 70.5l-36 -143q-53 -31 -118 -47t-151 -16q-100 0 -189 35.5t-155.5 99t-105.5 152.5t-39 196q0 113 39 203t102.5 152.5t144 96t162.5 33.5q96 0 169 -29.5t122 -78.5t73.5 -112t24.5 -126z" />
<glyph unicode="&#xe9;" horiz-adv-x="989" d="M758 1225q-66 -53 -138.5 -86t-150.5 -54l-63 62q88 25 176 71t153 111zM784 596q0 41 -16 83t-48 77t-79 57.5t-111 22.5q-57 0 -108 -22.5t-93 -59.5t-70 -85t-38 -100h561q2 9 2 27zM913 602v-33q0 -16 -4 -30l-78 -76h-620q-4 -70 20.5 -136.5t73.5 -117.5t119 -83 t156 -32q84 0 153.5 21.5t136.5 70.5l-36 -143q-53 -31 -118 -47t-151 -16q-100 0 -189 35.5t-155.5 99t-105.5 152.5t-39 196q0 113 39 203t102.5 152.5t144 96t162.5 33.5q96 0 169 -29.5t122 -78.5t73.5 -112t24.5 -126z" />
<glyph unicode="&#xea;" horiz-adv-x="989" d="M698 1087q-49 23 -89 50.5t-74 68.5q-35 -41 -77 -68.5t-91 -50.5l-60 58q66 31 124 82t104 112q43 -61 100 -112t125 -82zM784 596q0 41 -16 83t-48 77t-79 57.5t-111 22.5q-57 0 -108 -22.5t-93 -59.5t-70 -85t-38 -100h561q2 9 2 27zM913 602v-33q0 -16 -4 -30 l-78 -76h-620q-4 -70 20.5 -136.5t73.5 -117.5t119 -83t156 -32q84 0 153.5 21.5t136.5 70.5l-36 -143q-53 -31 -118 -47t-151 -16q-100 0 -189 35.5t-155.5 99t-105.5 152.5t-39 196q0 113 39 203t102.5 152.5t144 96t162.5 33.5q96 0 169 -29.5t122 -78.5t73.5 -112 t24.5 -126z" />
<glyph unicode="&#xeb;" horiz-adv-x="989" d="M479 1174q0 -10 -7 -25.5t-18.5 -29t-23.5 -23t-22 -9.5q-8 0 -21.5 9.5t-25 23t-19.5 28.5t-8 26q0 12 8 26t19.5 28.5t24.5 24t22 9.5q10 0 22 -9.5t23.5 -24t18.5 -28.5t7 -26zM719 1174q0 -10 -7 -25.5t-17.5 -29t-24 -23t-23.5 -9.5t-23.5 9.5t-24.5 23t-18.5 28.5 t-7.5 26q0 12 7.5 26t18.5 28.5t24.5 24t23.5 9.5t23.5 -9.5t24 -24t17.5 -28.5t7 -26zM784 596q0 41 -16 83t-48 77t-79 57.5t-111 22.5q-57 0 -108 -22.5t-93 -59.5t-70 -85t-38 -100h561q2 9 2 27zM913 602v-33q0 -16 -4 -30l-78 -76h-620q-4 -70 20.5 -136.5 t73.5 -117.5t119 -83t156 -32q84 0 153.5 21.5t136.5 70.5l-36 -143q-53 -31 -118 -47t-151 -16q-100 0 -189 35.5t-155.5 99t-105.5 152.5t-39 196q0 113 39 203t102.5 152.5t144 96t162.5 33.5q96 0 169 -29.5t122 -78.5t73.5 -112t24.5 -126z" />
<glyph unicode="&#xec;" horiz-adv-x="471" d="M289 1085q-78 20 -150.5 53t-138.5 87l23 104q66 -66 153.5 -112t175.5 -70zM170 0v928h131v-928h-131z" />
<glyph unicode="&#xed;" horiz-adv-x="471" d="M471 1225q-66 -53 -138.5 -86t-150.5 -54l-63 62q88 25 176 71t154 111zM170 0v928h131v-928h-131z" />
<glyph unicode="&#xee;" horiz-adv-x="471" d="M401 1087q-51 23 -91 50.5t-74 68.5q-35 -41 -76 -68.5t-92 -50.5l-60 58q68 31 125 82t103 112q43 -61 100 -112t125 -82zM170 0v928h131v-928h-131z" />
<glyph unicode="&#xef;" horiz-adv-x="471" d="M188 1174q0 -10 -7 -25.5t-18 -29t-24.5 -23t-23.5 -9.5q-8 0 -21.5 9.5t-25 23t-19.5 28.5t-8 26q0 12 8 26t19.5 28.5t24.5 24t22 9.5q10 0 23.5 -9.5t24.5 -24t18 -28.5t7 -26zM426 1174q0 -10 -7 -25.5t-17.5 -29t-23.5 -23t-24 -9.5q-10 0 -22.5 9.5t-23.5 23 t-18 28.5t-7 26q0 12 7 26t18 28.5t23.5 24t22.5 9.5t23.5 -9.5t24 -24t17.5 -28.5t7 -26zM170 0v928h131v-928h-131z" />
<glyph unicode="&#xf0;" horiz-adv-x="1007" d="M819 428q0 33 -11 77t-27.5 91t-38.5 95l-42 91q-29 -2 -64.5 -7t-72.5 -12t-71.5 -16.5t-61.5 -19.5q-250 -98 -250 -330q0 -74 24.5 -134t65.5 -103t98.5 -67.5t120.5 -24.5t123 23.5t106 68.5t73.5 112.5t27.5 155.5zM920 428q0 -113 -35 -197t-93.5 -140t-136 -85 t-163.5 -29q-88 0 -164 32t-131.5 88.5t-87 133t-31.5 166.5q0 150 86 256.5t219 153.5q57 20 138 37.5t141 23.5l-134 297l-184 -75l-33 73l183 76l-99 219h109l80 -180l164 68l32 -76l-164 -68l232 -512q14 -31 26.5 -65.5t22.5 -70.5t16.5 -68.5t6.5 -57.5z" />
<glyph unicode="&#xf1;" horiz-adv-x="1019" d="M725 1171q-53 -37 -112.5 -58t-125.5 -26l-28 97q-47 -4 -101.5 -25.5t-99.5 -50.5l18 90q53 33 113 56.5t125 27.5l27 -98q51 4 104 26.5t98 51.5zM770 0v612q0 98 -65.5 161t-190.5 63q-121 0 -192.5 -62.5t-71.5 -161.5v-612h-129v928h117l4 -113q37 53 108.5 93 t194.5 40q76 0 140.5 -22.5t112.5 -63.5t74.5 -101.5t26.5 -135.5v-625h-129z" />
<glyph unicode="&#xf2;" horiz-adv-x="1128" d="M610 1085q-78 20 -150.5 53t-137.5 87l22 104q66 -66 154 -112t176 -70zM922 463q0 82 -28 149.5t-77 116.5t-113.5 77t-138.5 28q-76 0 -141.5 -28t-113.5 -77t-75.5 -116.5t-27.5 -149.5t27.5 -149.5t75.5 -117t113.5 -76t141.5 -26.5q74 0 138.5 26.5t113.5 76t77 117 t28 149.5zM1053 463q0 -106 -37 -194.5t-102.5 -153t-154.5 -100t-194 -35.5q-104 0 -193 35.5t-154.5 100t-103.5 152.5t-38 195q0 106 38 195.5t103.5 154t154.5 100t193 35.5t193.5 -35.5t155 -100t102.5 -154t37 -195.5z" />
<glyph unicode="&#xf3;" horiz-adv-x="1128" d="M809 1225q-66 -53 -138.5 -86t-150.5 -54l-63 62q88 25 176 71t153 111zM922 463q0 82 -28 149.5t-77 116.5t-113.5 77t-138.5 28q-76 0 -141.5 -28t-113.5 -77t-75.5 -116.5t-27.5 -149.5t27.5 -149.5t75.5 -117t113.5 -76t141.5 -26.5q74 0 138.5 26.5t113.5 76t77 117 t28 149.5zM1053 463q0 -106 -37 -194.5t-102.5 -153t-154.5 -100t-194 -35.5q-104 0 -193 35.5t-154.5 100t-103.5 152.5t-38 195q0 106 38 195.5t103.5 154t154.5 100t193 35.5t193.5 -35.5t155 -100t102.5 -154t37 -195.5z" />
<glyph unicode="&#xf4;" horiz-adv-x="1128" d="M731 1087q-51 23 -91 50.5t-75 68.5q-35 -41 -77 -68.5t-91 -50.5l-59 58q68 31 125 82t102 112q43 -61 100.5 -112t125.5 -82zM922 463q0 82 -28 149.5t-77 116.5t-113.5 77t-138.5 28q-76 0 -141.5 -28t-113.5 -77t-75.5 -116.5t-27.5 -149.5t27.5 -149.5t75.5 -117 t113.5 -76t141.5 -26.5q74 0 138.5 26.5t113.5 76t77 117t28 149.5zM1053 463q0 -106 -37 -194.5t-102.5 -153t-154.5 -100t-194 -35.5q-104 0 -193 35.5t-154.5 100t-103.5 152.5t-38 195q0 106 38 195.5t103.5 154t154.5 100t193 35.5t193.5 -35.5t155 -100t102.5 -154 t37 -195.5z" />
<glyph unicode="&#xf5;" horiz-adv-x="1128" d="M786 1171q-51 -37 -111.5 -58t-125.5 -26l-27 97q-49 -4 -103 -25.5t-100 -50.5l21 90q53 33 112.5 56.5t122.5 27.5l29 -98q49 4 102.5 26.5t98.5 51.5zM922 463q0 82 -28 149.5t-77 116.5t-113.5 77t-138.5 28q-76 0 -141.5 -28t-113.5 -77t-75.5 -116.5t-27.5 -149.5 t27.5 -149.5t75.5 -117t113.5 -76t141.5 -26.5q74 0 138.5 26.5t113.5 76t77 117t28 149.5zM1053 463q0 -106 -37 -194.5t-102.5 -153t-154.5 -100t-194 -35.5q-104 0 -193 35.5t-154.5 100t-103.5 152.5t-38 195q0 106 38 195.5t103.5 154t154.5 100t193 35.5t193.5 -35.5 t155 -100t102.5 -154t37 -195.5z" />
<glyph unicode="&#xf6;" horiz-adv-x="1128" d="M520 1174q0 -10 -7 -25.5t-18.5 -29t-24.5 -23t-24 -9.5q-8 0 -21 9.5t-23.5 23t-18.5 28.5t-8 26q0 12 8 26t18.5 28.5t23.5 24t21 9.5q10 0 23.5 -9.5t25 -24t18.5 -28.5t7 -26zM758 1174q0 -10 -7.5 -25.5t-17.5 -29t-22.5 -23t-22.5 -9.5t-23.5 9.5t-24.5 23 t-18.5 28.5t-7.5 26q0 12 7.5 26t18.5 28.5t24.5 24t23.5 9.5t22.5 -9.5t22.5 -24t17.5 -28.5t7.5 -26zM922 463q0 82 -28 149.5t-77 116.5t-113.5 77t-138.5 28q-76 0 -141.5 -28t-113.5 -77t-75.5 -116.5t-27.5 -149.5t27.5 -149.5t75.5 -117t113.5 -76t141.5 -26.5 q74 0 138.5 26.5t113.5 76t77 117t28 149.5zM1053 463q0 -106 -37 -194.5t-102.5 -153t-154.5 -100t-194 -35.5q-104 0 -193 35.5t-154.5 100t-103.5 152.5t-38 195q0 106 38 195.5t103.5 154t154.5 100t193 35.5t193.5 -35.5t155 -100t102.5 -154t37 -195.5z" />
<glyph unicode="&#xf7;" horiz-adv-x="948" d="M557 319q0 -12 -8 -30.5t-21.5 -33.5t-28 -26.5t-26.5 -11.5t-26.5 11.5t-27.5 26.5t-21.5 33.5t-8.5 30.5t8.5 31t21.5 34t27.5 26.5t26.5 11.5t26.5 -11.5t28 -26.5t21.5 -34t8 -31zM90 512v111h766v-111h-766zM557 817q0 -12 -8 -30.5t-21.5 -34t-28 -26.5t-26.5 -11 t-26.5 11t-27.5 26.5t-21.5 34t-8.5 30.5t8.5 30.5t21.5 34t27.5 27t26.5 11.5t26.5 -11.5t28 -27t21.5 -34t8 -30.5z" />
<glyph unicode="&#xf8;" horiz-adv-x="1120" d="M760 776q-86 57 -195 58q-76 0 -141.5 -28t-113.5 -77t-75.5 -116.5t-27.5 -149.5q0 -78 25.5 -143.5t68.5 -112.5zM922 463q0 78 -26 144.5t-73 115.5l-458 -571q90 -57 200 -58q74 0 138.5 26.5t113.5 76t77 117t28 149.5zM1053 463q0 -106 -37 -194.5t-102.5 -153 t-154.5 -100t-194 -35.5q-78 0 -147.5 20t-128.5 57l-90 -112l-64 53l88 111q-68 66 -107.5 154.5t-39.5 199.5q0 106 38 195.5t103.5 154t154.5 100t193 35.5q154 0 271 -76l90 111l63 -53l-88 -109q72 -66 112 -156.5t40 -201.5z" />
<glyph unicode="&#xf9;" horiz-adv-x="1019" d="M547 1085q-78 20 -150.5 53t-138.5 87l23 104q66 -66 153.5 -112t175.5 -70zM782 0l-4 113q-37 -53 -108.5 -93t-194.5 -40q-76 0 -140.5 22.5t-112.5 63t-74.5 101t-26.5 136.5v625h129v-613q0 -98 65.5 -160.5t190.5 -62.5q121 0 192.5 62.5t71.5 160.5v613h129v-928 h-117z" />
<glyph unicode="&#xfa;" horiz-adv-x="1019" d="M778 1225q-66 -53 -138.5 -86t-150.5 -54l-63 62q88 25 176 71t154 111zM782 0l-4 113q-37 -53 -108.5 -93t-194.5 -40q-76 0 -140.5 22.5t-112.5 63t-74.5 101t-26.5 136.5v625h129v-613q0 -98 65.5 -160.5t190.5 -62.5q121 0 192.5 62.5t71.5 160.5v613h129v-928h-117z " />
<glyph unicode="&#xfb;" horiz-adv-x="1019" d="M686 1087q-51 23 -91 50.5t-75 68.5q-35 -41 -77 -68.5t-91 -50.5l-59 58q68 31 125 82t102 112q43 -61 100.5 -112t124.5 -82zM782 0l-4 113q-37 -53 -108.5 -93t-194.5 -40q-76 0 -140.5 22.5t-112.5 63t-74.5 101t-26.5 136.5v625h129v-613q0 -98 65.5 -160.5 t190.5 -62.5q121 0 192.5 62.5t71.5 160.5v613h129v-928h-117z" />
<glyph unicode="&#xfc;" horiz-adv-x="1019" d="M469 1174q0 -10 -7 -25.5t-18.5 -29t-24.5 -23t-24 -9.5q-8 0 -21.5 9.5t-24.5 23t-19 28.5t-8 26q0 12 8 26t19 28.5t24.5 24t21.5 9.5q10 0 23.5 -9.5t25 -24t18.5 -28.5t7 -26zM707 1174q0 -10 -7.5 -25.5t-17.5 -29t-23.5 -23t-23.5 -9.5t-22.5 9.5t-23.5 23 t-18.5 28.5t-7.5 26q0 12 7.5 26t18.5 28.5t23.5 24t22.5 9.5t23.5 -9.5t23.5 -24t17.5 -28.5t7.5 -26zM782 0l-4 113q-37 -53 -108.5 -93t-194.5 -40q-76 0 -140.5 22.5t-112.5 63t-74.5 101t-26.5 136.5v625h129v-613q0 -98 65.5 -160.5t190.5 -62.5q121 0 192.5 62.5 t71.5 160.5v613h129v-928h-117z" />
<glyph unicode="&#xfd;" horiz-adv-x="950" d="M729 1225q-66 -53 -138.5 -86t-150.5 -54l-63 62q88 25 176 71t154 111zM539 80q-53 -125 -108.5 -218t-114 -161t-121 -111t-132.5 -67l-79 82q133 41 234 152.5t192 324.5l-359 846h135l199 -467l46 -114l46 -120h4l45 116l47 114l201 471h125z" />
<glyph unicode="&#xfe;" horiz-adv-x="1083" d="M877 465q0 82 -28 149.5t-76 116.5t-112.5 76t-140.5 27q-80 0 -145.5 -27t-110.5 -74v-540q41 -41 109.5 -70t146.5 -29q76 0 140.5 28t112.5 77t76 116.5t28 149.5zM1008 465q0 -106 -37 -195.5t-102.5 -154t-154.5 -100t-194 -35.5q-78 0 -146.5 22.5t-109.5 52.5 v-528h-129v1931h129v-596q49 41 121 63.5t156 22.5q86 0 170 -32.5t149.5 -95t106.5 -151.5t41 -204z" />
<glyph unicode="&#xff;" horiz-adv-x="950" d="M430 1167q0 -10 -8 -25.5t-19.5 -28.5t-23.5 -23.5t-23 -10.5q-8 0 -21 10.5t-24.5 23.5t-19.5 28.5t-8 25.5t8 25.5t19.5 30t24.5 23.5t21 9q10 0 22.5 -9t24 -23.5t19.5 -30t8 -25.5zM668 1167q0 -10 -7.5 -25.5t-17.5 -28.5t-23.5 -23.5t-23.5 -10.5t-22.5 10.5 t-23.5 23.5t-19.5 28.5t-8.5 25.5t8.5 25.5t19.5 30t23.5 23.5t22.5 9t23.5 -9t23.5 -23.5t17.5 -30t7.5 -25.5zM539 80q-53 -125 -108.5 -218t-114 -161t-121 -111t-132.5 -67l-79 82q133 41 234 152.5t192 324.5l-359 846h135l199 -467l46 -114l46 -120h4l45 116l47 114 l201 471h125z" />
<glyph unicode="&#x152;" horiz-adv-x="1955" d="M1163 1053q-76 72 -178 114.5t-215 42.5q-106 0 -205.5 -40t-174.5 -111.5t-120 -174t-45 -229.5q0 -125 45 -228t120 -176t174.5 -113t205.5 -40q113 0 215 42t178 116v797zM1163 0v100q-84 -59 -183 -91t-210 -32q-135 0 -259 48.5t-218 137.5t-150.5 214t-56.5 278 q0 152 56.5 276t150.5 213t218 137t259 48q111 0 210 -31.5t183 -89.5v99h682v-119h-545v-471h447v-119h-447v-479h617v-119h-754z" />
<glyph unicode="&#x153;" horiz-adv-x="1835" d="M922 463q0 82 -28 149.5t-77 116.5t-113.5 77t-138.5 28q-76 0 -141.5 -28t-113.5 -77t-75.5 -116.5t-27.5 -149.5t27.5 -149.5t75.5 -117t113.5 -76t141.5 -26.5q74 0 138.5 26.5t113.5 76t77 117t28 149.5zM1628 596q0 41 -16.5 83t-48 77t-78.5 57.5t-111 22.5 q-57 0 -108.5 -22.5t-92 -59.5t-68.5 -85t-38 -100h559q2 9 2 27zM1759 602q0 -16 -1 -32.5t-3 -30.5l-78 -76h-620q-4 -70 20.5 -136.5t73.5 -117.5t118.5 -83t155.5 -32q82 0 152 21.5t137 70.5l-37 -143q-53 -31 -116.5 -47t-151.5 -16q-137 0 -248.5 65.5t-171.5 179.5 q-59 -113 -170.5 -179t-253.5 -66q-104 0 -193 35.5t-154.5 100t-103.5 152.5t-38 195q0 106 38 195.5t103.5 154t154.5 100t193 35.5q141 0 252 -66.5t168 -176.5q59 115 163.5 179t219.5 64q96 0 169 -29.5t122 -78.5t74.5 -112t25.5 -126z" />
<glyph unicode="&#x178;" horiz-adv-x="1183" d="M657 604v-604h-135v604l-497 703h151l283 -400l67 -98l68 -100h4l66 99l69 99l285 400h141zM532 1569q0 -12 -9 -29.5t-21.5 -34t-27.5 -27.5t-28 -11q-10 0 -25.5 11t-28.5 27.5t-22.5 34t-9.5 29.5t9.5 30.5t22.5 35t28.5 28t25.5 11.5q12 0 27.5 -11.5t28 -28 t21.5 -35t9 -30.5zM813 1569q0 -12 -8 -29.5t-21.5 -34t-28 -27.5t-26.5 -11t-27.5 11t-28 27.5t-21.5 34t-9 29.5t9 30.5t21.5 35t28 28t27.5 11.5t26.5 -11.5t28 -28t21.5 -35t8 -30.5z" />
<glyph unicode="&#x2c6;" horiz-adv-x="737" d="M563 1057q-59 29 -106 61.5t-88 79.5q-41 -47 -89.5 -80t-107.5 -61l-70 69q78 35 145.5 95.5t121.5 132.5q51 -72 118.5 -132.5t147.5 -95.5z" />
<glyph unicode="&#x2da;" horiz-adv-x="737" d="M492 1243q0 53 -35 87t-88 34t-88 -34t-35 -87t34.5 -88t88.5 -35q53 0 88 35t35 88zM575 1243q0 -43 -16 -81t-45 -65.5t-65.5 -44t-79.5 -16.5t-80 16.5t-65.5 44t-45 65.5t-16.5 81t16.5 80t45 64.5t65.5 44t80 16.5t79.5 -16.5t65.5 -44t45 -64.5t16 -80z" />
<glyph unicode="&#x2dc;" horiz-adv-x="737" d="M633 1157q-59 -43 -130 -68.5t-149 -29.5l-32 112q-57 -4 -121 -29.5t-117 -60.5l22 107q61 39 132 66.5t147 31.5l33 -115q59 4 121.5 31t115.5 60z" />
<glyph unicode="&#x2000;" horiz-adv-x="927" />
<glyph unicode="&#x2001;" horiz-adv-x="1857" />
<glyph unicode="&#x2002;" horiz-adv-x="927" />
<glyph unicode="&#x2003;" horiz-adv-x="1857" />
<glyph unicode="&#x2004;" horiz-adv-x="618" />
<glyph unicode="&#x2005;" horiz-adv-x="462" />
<glyph unicode="&#x2006;" horiz-adv-x="309" />
<glyph unicode="&#x2007;" horiz-adv-x="309" />
<glyph unicode="&#x2008;" horiz-adv-x="231" />
<glyph unicode="&#x2009;" horiz-adv-x="370" />
<glyph unicode="&#x200a;" horiz-adv-x="102" />
<glyph unicode="&#x2010;" horiz-adv-x="692" d="M90 512v111h512v-111h-512z" />
<glyph unicode="&#x2011;" horiz-adv-x="692" d="M90 512v111h512v-111h-512z" />
<glyph unicode="&#x2012;" horiz-adv-x="692" d="M90 512v111h512v-111h-512z" />
<glyph unicode="&#x2013;" horiz-adv-x="1204" d="M90 512v111h1024v-111h-1024z" />
<glyph unicode="&#x2014;" horiz-adv-x="1716" d="M90 512v111h1536v-111h-1536z" />
<glyph unicode="&#x2018;" horiz-adv-x="382" d="M326 1450q-47 -59 -78 -121.5t-35 -105.5q20 -6 48 -36t28 -57q0 -14 -10.5 -33.5t-25.5 -37t-31.5 -29.5t-28.5 -12t-29 12t-32 28.5t-25.5 37t-10.5 34.5q0 29 14.5 71t38 88t54 90t63.5 79z" />
<glyph unicode="&#x2019;" horiz-adv-x="382" d="M287 1354q0 -29 -14.5 -70t-38 -87t-54 -90t-65.5 -79l-58 8q47 57 77 120t36 108q-10 4 -23.5 13t-24.5 22.5t-19.5 27.5t-8.5 27q0 16 10.5 35.5t25.5 37t31.5 29.5t28.5 12t29 -12t32 -29.5t25.5 -37t10.5 -35.5z" />
<glyph unicode="&#x201a;" horiz-adv-x="382" d="M287 92q0 -29 -14.5 -70.5t-38 -88t-54 -90.5t-65.5 -79l-58 9q47 57 77 119.5t36 107.5q-23 6 -49.5 36t-26.5 56q0 14 10.5 33.5t25.5 37t31.5 30t28.5 12.5t29 -12.5t32 -29t25.5 -36t10.5 -35.5z" />
<glyph unicode="&#x201c;" horiz-adv-x="700" d="M326 1450q-47 -57 -78 -119.5t-35 -107.5q20 -6 48 -36t28 -57q0 -14 -10.5 -33.5t-25.5 -37t-31.5 -29.5t-28.5 -12t-29 12t-32 28.5t-25.5 37t-10.5 34.5q0 29 14.5 71t38 88t54 90t63.5 79zM643 1450q-47 -57 -77.5 -119.5t-35.5 -107.5q10 -2 23.5 -12.5t25 -23.5 t19.5 -27.5t8 -26.5q0 -14 -10 -35t-25.5 -38.5t-32 -29.5t-28.5 -12t-28.5 12t-32 29.5t-25.5 37t-10 36.5q0 29 14 69.5t37.5 86.5t54.5 91t64 80z" />
<glyph unicode="&#x201d;" horiz-adv-x="700" d="M287 1354q0 -29 -14.5 -70t-38 -87t-54 -90t-65.5 -79l-58 8q47 57 77 120t36 108q-10 4 -23.5 13t-24.5 22.5t-19.5 27.5t-8.5 27q0 16 10.5 35.5t25.5 37t31.5 29.5t28.5 12t29 -12t32 -29.5t25.5 -37t10.5 -35.5zM604 1354q0 -29 -14.5 -70t-38 -87t-54 -90t-63.5 -79 l-59 8q47 57 77.5 121t34.5 107q-10 4 -23 13t-24.5 22.5t-19.5 27.5t-8 27q0 16 10 35.5t25.5 37t32 29.5t28.5 12t28.5 -12t32 -29.5t25.5 -37t10 -35.5z" />
<glyph unicode="&#x201e;" horiz-adv-x="681" d="M281 92q0 -29 -14.5 -70.5t-39 -88t-55.5 -90.5t-63 -79l-58 9q45 57 76 119.5t37 107.5q-23 6 -49.5 36t-26.5 56q0 14 10.5 33.5t24.5 37t31.5 30t29.5 12.5q10 0 26.5 -12.5t32 -29t27 -36t11.5 -35.5zM598 92q0 -29 -14.5 -70.5t-39 -87t-55 -90.5t-63.5 -80l-57 11 q45 57 75.5 119.5t36.5 105.5q-10 4 -23.5 13.5t-24.5 23.5t-19 28.5t-8 26.5q0 14 10 33.5t25.5 37t31.5 30t29 12.5q12 0 28.5 -12.5t32 -29t25.5 -36t10 -35.5z" />
<glyph unicode="&#x2022;" horiz-adv-x="765" d="M655 567q0 -59 -20.5 -108t-57 -85t-86 -55.5t-108.5 -19.5q-57 0 -107.5 19.5t-87 55.5t-57 85t-20.5 108t20.5 108.5t57 85.5t87 56.5t107.5 20.5q59 0 108.5 -20.5t86 -56.5t57 -85.5t20.5 -108.5z" />
<glyph unicode="&#x2026;" horiz-adv-x="1050" d="M285 92q0 -14 -10.5 -33.5t-24.5 -37t-31.5 -29.5t-30.5 -12q-12 0 -29.5 12t-31.5 29.5t-24.5 37t-10.5 33.5t10.5 33.5t24.5 37t31.5 30t29.5 12.5t30 -12.5t32 -30t24.5 -37t10.5 -33.5zM621 92q0 -14 -10.5 -33.5t-25 -37t-31.5 -29.5t-30 -12q-12 0 -29.5 12 t-31.5 29.5t-24.5 37t-10.5 33.5t10.5 33.5t24.5 37t31.5 30t29.5 12.5t29.5 -12.5t32 -30t25 -37t10.5 -33.5zM958 92q0 -14 -10 -33.5t-25.5 -37t-32 -29.5t-30.5 -12q-12 0 -29.5 12t-32 29.5t-24.5 37t-10 33.5t10 33.5t24.5 37t32 30t29.5 12.5q14 0 30.5 -12.5t32 -30 t25.5 -37t10 -33.5z" />
<glyph unicode="&#x202f;" horiz-adv-x="370" />
<glyph unicode="&#x2039;" horiz-adv-x="462" d="M336 221q-53 96 -138 188.5t-188 157.5q102 68 187.5 159t138.5 187l74 -73q-37 -78 -95.5 -148.5t-124.5 -124.5q66 -53 124.5 -123.5t95.5 -148.5z" />
<glyph unicode="&#x203a;" horiz-adv-x="462" d="M453 567q-102 -66 -188.5 -158t-139.5 -188l-74 74q37 78 95.5 148.5t123.5 123.5q-66 53 -124 124t-95 149l74 73q53 -96 139.5 -187t188.5 -159z" />
<glyph unicode="&#x205f;" horiz-adv-x="462" />
<glyph unicode="&#x2122;" horiz-adv-x="851" d="M219 1253v-325h-59v325h-115v54h289v-54h-115zM717 928l-19 243l-123 -245h-22l-119 241l-18 -239h-56l29 379h39l139 -285l138 285h40l29 -379h-57z" />
<glyph unicode="&#xe000;" horiz-adv-x="930" d="M0 930h930v-930h-930v930z" />
<glyph unicode="&#xfb01;" horiz-adv-x="1044" d="M745 0v821h-432v-821h-131v821h-147v107h147v102q0 109 30 189.5t82 136t125 83t161 27.5q66 0 113.5 -12t82.5 -33l-26 -110q-29 16 -77 30.5t-106 14.5q-113 0 -183.5 -83t-70.5 -218v-127h561v-928h-129z" />
<glyph unicode="&#xfb02;" horiz-adv-x="1126" d="M938 -27q-27 8 -55.5 24.5t-51 44.5t-38 69t-15.5 96v1116q-27 16 -66.5 24.5t-99.5 8.5q-63 0 -117.5 -23.5t-94.5 -67.5t-63.5 -106.5t-23.5 -140.5v-90h230l-25 -107h-205v-821h-131v821h-147v107h147v65q0 111 34 199t93.5 148.5t141 93t178.5 32.5q88 0 157.5 -19.5 t122.5 -62.5v-1163q0 -66 35 -107.5t84 -52.5z" />
<glyph unicode="&#xfb03;" horiz-adv-x="1777" d="M1477 0v928h131v-928h-131zM1631 1206q0 -12 -9.5 -28.5t-24 -32t-28.5 -26.5t-26 -11t-26.5 11t-28 26.5t-22.5 32t-9 28.5t9 29.5t22.5 33t27.5 27t27 11.5q12 0 26 -11.5t28.5 -27t24 -33t9.5 -29.5zM1345 1325q-29 14 -67.5 22.5t-79.5 8.5q-111 0 -171.5 -82 t-60.5 -207v-139h293l-24 -107h-269v-821h-131v821h-147v107h147v104q0 215 100.5 324.5t282.5 109.5q43 0 83 -8t71 -22zM692 1325q-29 14 -67.5 22.5t-79.5 8.5q-111 0 -171.5 -82t-60.5 -207v-139h293l-24 -107h-269v-821h-131v821h-147v107h147v104q0 215 100.5 324.5 t282.5 109.5q43 0 83 -8t71 -22z" />
<glyph unicode="&#xfb04;" horiz-adv-x="1824" d="M1637 -31q-27 8 -55.5 24.5t-51 44.5t-38 68.5t-15.5 96.5v1255h129v-1241q0 -66 36 -107.5t83 -52.5zM1345 1325q-29 14 -67.5 22.5t-79.5 8.5q-111 0 -171.5 -82t-60.5 -207v-139h293l-24 -107h-269v-821h-131v821h-147v107h147v104q0 215 100.5 324.5t282.5 109.5 q43 0 83 -8t71 -22zM692 1325q-29 14 -67.5 22.5t-79.5 8.5q-111 0 -171.5 -82t-60.5 -207v-139h293l-24 -107h-269v-821h-131v821h-147v107h147v104q0 215 100.5 324.5t282.5 109.5q43 0 83 -8t71 -22z" />
</font>
</defs>
</svg>
