<?xml version="1.0" standalone="no"?>
<!DOCTYPE svg PUBLIC "-//W3C//DTD SVG 1.1//EN" "http://www.w3.org/Graphics/SVG/1.1/DTD/svg11.dtd" >
<svg xmlns="http://www.w3.org/2000/svg">
<metadata>
This is a custom SVG webfont generated by Font Squirrel.
Copyright   :  Design Francisco Gez from Santiago de Chile  the end of the world  2001
</metadata>
<defs>
<font id="webfontBgDBzDV4" horiz-adv-x="1024" >
<font-face units-per-em="2048" ascent="1638" descent="-410" />
<missing-glyph horiz-adv-x="532" />
<glyph unicode=" "  horiz-adv-x="532" />
<glyph unicode="&#x09;" horiz-adv-x="532" />
<glyph unicode="&#xa0;" horiz-adv-x="532" />
<glyph unicode="!" horiz-adv-x="552" d="M393 1343l-61 -997h-80l-62 997h203zM416 102q0 -51 -36 -85.5t-87 -34.5t-87 34.5t-36 85.5t36 87t87 36t87 -36t36 -87z" />
<glyph unicode="&#x22;" horiz-adv-x="694" d="M668 911h-95l-36 463h131v-463zM340 911h-96l-37 463h133v-463z" />
<glyph unicode="#" horiz-adv-x="1183" d="M860 0h-117v991h117v-991zM1061 647h-938v80h938v-80zM1061 264h-938v80h938v-80zM440 0h-116v991h116v-991z" />
<glyph unicode="$" horiz-adv-x="960" d="M836 936l-74 -86q-10 35 -74 57q-51 18 -106 19q-86 0 -150 -43q-72 -51 -72 -135q0 -76 115 -125l215 -86q115 -68 115 -187q0 -354 -371 -370l-51 -285h-68l52 287q-178 12 -254 124l77 80q80 -113 213 -112q98 0 172 47q86 55 87 149q0 82 -117 133l-215 91 q-117 66 -117 178q0 147 100 241q92 88 236 101l49 282h68l-50 -280q128 -8 220 -80z" />
<glyph unicode="%" horiz-adv-x="1740" d="M1671 332q0 -147 -105.5 -253t-252.5 -106q-150 0 -254.5 105.5t-104.5 253.5q0 150 104.5 254t254.5 104q147 0 252.5 -104t105.5 -254zM1522 1407l-1178 -1501h-123l1159 1501h142zM786 1014q0 -150 -104 -254.5t-254 -104.5q-147 0 -252.5 104.5t-105.5 254.5 t105.5 255t252.5 105q150 0 254 -105t104 -255zM1546 332q0 98 -68.5 166.5t-164.5 68.5q-98 0 -167 -68.5t-69 -166.5q0 -96 68.5 -165t167.5 -69q96 0 164.5 69t68.5 165zM664 1014q0 96 -69 165.5t-167 69.5q-96 0 -164.5 -69.5t-68.5 -165.5q0 -98 68.5 -167t164.5 -69 q98 0 167 69t69 167z" />
<glyph unicode="&#x26;" horiz-adv-x="1617" d="M1692 745l-172 -227l-185 -12q-47 -246 -235 -434q-205 -205 -455 -205q-219 0 -350 136t-131 351q0 250 143 447q158 215 400 215q244 0 317 -125l-520 -643l-66 61l418 547q-53 72 -145 72q-172 0 -275 -207q-84 -170 -84 -365q0 -186 83 -293.5t224 -107.5 q193 0 334 180q119 152 158 359l-158 -11l-145 -153l-53 45l168 207l538 36l127 170z" />
<glyph unicode="'" horiz-adv-x="354" d="M342 911h-96l-37 463h133v-463z" />
<glyph unicode="(" horiz-adv-x="612" d="M596 1399q-141 -133 -219 -344q-74 -201 -74 -428q0 -233 72 -432q76 -213 219 -347l-66 -67q-164 150 -252 381q-84 219 -81 465q2 246 84 463q88 227 251 376z" />
<glyph unicode=")" horiz-adv-x="612" d="M481 627q2 -246 -82 -465q-88 -231 -252 -381l-65 67q143 133 219 347q72 199 72 432q0 227 -74 428q-78 211 -219 344l65 67q164 -150 252 -376q82 -217 84 -463z" />
<glyph unicode="*" />
<glyph unicode="+" horiz-adv-x="1107" d="M985 455h-373v-389h-118v389h-371v118h371v390h118v-390h373v-118z" />
<glyph unicode="," horiz-adv-x="598" d="M426 125q0 -293 -309 -463l-43 45q229 137 229 277q0 14 -6 14q-2 0 -24.5 -11.5t-43.5 -11.5q-35 0 -61 23q-35 33 -35 92t47 109.5t121 50.5q63 0 96 -41q29 -33 29 -84z" />
<glyph unicode="-" horiz-adv-x="878" d="M793 457h-670v116h670v-116z" />
<glyph unicode="." horiz-adv-x="598" d="M424 119q0 -59 -43 -102.5t-102 -43.5t-101.5 43t-42.5 103q0 59 43 101t101 42q59 0 102 -42t43 -101z" />
<glyph unicode="/" horiz-adv-x="954" d="M1012 1403l-748 -1585h-141l747 1585h142z" />
<glyph unicode="0" horiz-adv-x="1200" d="M1137 578q0 -229 -184.5 -413.5t-413.5 -184.5q-180 0 -297 120.5t-117 300.5q0 238 180 426.5t418 188.5q184 0 299 -125t115 -313zM987 575q0 143 -82 236.5t-203 93.5q-170 0 -299 -162q-123 -154 -122 -327q0 -139 79.5 -233.5t198.5 -94.5q168 0 301 162 q127 151 127 325z" />
<glyph unicode="1" horiz-adv-x="675" d="M524 989l-174 -989h-166l160 909h-160l15 80h325z" />
<glyph unicode="2" horiz-adv-x="905" d="M858 797q0 -152 -153 -275l-297 -188q-168 -111 -189 -225h533l-19 -109h-698l18 100q27 141 189 258l284 181q147 106 148 229q0 150 -176 150q-123 0 -238 -56l-14 84q150 70 321 70q291 0 291 -219z" />
<glyph unicode="3" horiz-adv-x="841" d="M791 772q0 -141 -100.5 -253.5t-241.5 -149.5h-3q133 -14 209 -91t76 -204q0 -227 -168 -369q-160 -135 -391 -135q-164 0 -258 72l47 63q18 -16 84 -33q74 -20 131 -20q170 0 272.5 118.5t102.5 288.5q0 262 -244 263h-125l13 77q53 4 153 15q123 20 197 129 q70 100 69 229q0 160 -176 160q-113 0 -233 -55l-21 67q141 70 295 70q141 0 221 -58q91 -63 91 -184z" />
<glyph unicode="4" horiz-adv-x="1030" d="M915 109l-18 -109h-172l-70 -391h-155l69 391h-557l19 109h4l715 913l149 -35l-156 -878h172zM719 848l-580 -739h449z" />
<glyph unicode="5" horiz-adv-x="1005" d="M936 989l-23 -131h-503l-84 -414q70 6 123 7q184 -2 303 -86q129 -92 129 -259q0 -211 -164 -373.5t-377 -162.5q-172 0 -274 78q14 20 51 61q72 -47 209 -47q168 0 276 133q100 125 100 297q0 266 -364 266q-66 0 -148 -8l132 639h614z" />
<glyph unicode="6" horiz-adv-x="1140" d="M1239 1432l-10 -66q-264 -16 -537 -225q-279 -211 -342 -455q129 109 275 109q162 0 269 -86t107 -236q0 -209 -155.5 -354.5t-366.5 -145.5q-367 0 -366 349q0 272 168 536q162 250 419 408q267 164 539 166zM823 473q0 229 -217 229q-152 0 -250 -129 q-86 -119 -86 -274q0 -115 62.5 -176.5t163.5 -59.5q150 2 243 136q84 118 84 274z" />
<glyph unicode="7" horiz-adv-x="954" d="M1008 989q-16 -45 -66 -151q-100 -203 -256 -377q-199 -219 -250 -295q-139 -209 -246 -557h-161q104 348 268 569q53 70 287 309q170 170 254 361h-705l51 141h824z" />
<glyph unicode="8" horiz-adv-x="1118" d="M1087 1114q0 -266 -305 -360v-6q242 -55 242 -283q0 -211 -156.5 -351.5t-371.5 -140.5q-164 0 -270.5 87t-106.5 239q0 172 100 295t270 160l3 4q-199 68 -199 241q0 170 145 291q139 115 312 115q145 0 241 -78t96 -213zM913 1128q0 195 -180 193q-123 0 -201 -111 q-68 -98 -67 -227q0 -182 178 -184q133 0 207 102q63 92 63 227zM848 463q0 117 -61.5 180.5t-161.5 61.5q-145 -2 -242 -132q-88 -119 -88 -268q0 -117 59.5 -178t159.5 -61q147 0 246 129q88 116 88 268z" />
<glyph unicode="9" horiz-adv-x="1157" d="M1059 672q0 -455 -339 -783.5t-796 -332.5l13 65q276 18 540 211q276 205 336 469q-129 -109 -272 -108q-162 0 -267 83q-111 86 -110 232q0 215 151.5 359.5t368.5 144.5q186 0 285 -97q90 -87 90 -243zM893 694q0 111 -62.5 171.5t-160.5 58.5q-147 -2 -242 -131 q-88 -117 -88 -269q0 -115 59.5 -177t159.5 -62q158 0 248 118q86 113 86 291z" />
<glyph unicode=":" horiz-adv-x="587" d="M535 786q0 -59 -43 -101t-103 -42q-59 0 -101 42t-42 101t42 102.5t101 43.5t102.5 -43.5t43.5 -102.5zM389 119q0 -59 -43 -101.5t-102 -42.5q-57 0 -100.5 43t-43.5 101q0 59 42 102t102 43q59 0 102 -43t43 -102z" />
<glyph unicode=";" horiz-adv-x="598" d="M532 786q0 -59 -41.5 -101t-101.5 -42q-59 0 -101 42t-42 101t42 102.5t101 43.5t101 -43.5t42 -102.5zM397 125q0 -293 -309 -463l-43 45q229 137 229 277q0 14 -6 14q-2 0 -24.5 -11.5t-42.5 -11.5q-35 0 -62 23q-35 33 -35 92t47.5 109.5t120.5 50.5q63 0 97 -41 q28 -33 28 -84z" />
<glyph unicode="&#x3c;" horiz-adv-x="1011" d="M973 881l-709 -353l582 -370l-74 -78l-674 412l11 65l819 404z" />
<glyph unicode="=" horiz-adv-x="983" d="M924 584h-764v104h764v-104zM868 281h-764v104h764v-104z" />
<glyph unicode="&#x3e;" horiz-adv-x="1011" d="M913 549l-10 -66l-819 -403l-45 80l709 352l-582 371l74 78z" />
<glyph unicode="?" horiz-adv-x="940" d="M946 999q0 -164 -110 -241q-41 -31 -213 -90q-125 -43 -146 -113l-59 -213h-135l47 236q18 88 131 131q193 74 196 75q100 63 101 205q0 152 -119 281q-98 106 -199 133l49 106q221 -61 339 -192.5t118 -317.5zM444 109q0 -55 -39.5 -95.5t-95.5 -40.5q-55 0 -95 40 t-40 96q0 55 40 95t95 40t95 -40t40 -95z" />
<glyph unicode="@" horiz-adv-x="1273" d="M1276 721q0 -264 -258 -436q-106 -72 -258 -119l-31 8q-12 80 0 156q-121 -178 -227 -178q-68 0 -105 84q-29 68 -28 149q0 127 98 277q106 164 233 176q82 -45 131 -152l60 123h108l-129 -322q-31 -78 -36 -186q326 121 325 399q0 135 -123 215q-111 74 -264 74 q-231 0 -404 -173t-173 -402q0 -186 128 -313.5t320 -127.5q135 0 268 74q127 68 195 170l84 -65q-100 -129 -247.5 -203t-311.5 -74q-236 0 -390.5 149.5t-154.5 378.5q0 276 212 482.5t490 206.5q193 0 332 -95q156 -106 156 -276zM780 588q-37 102 -137 149 q-66 -49 -111 -157q-41 -96 -40 -168q0 -150 49 -150q59 0 149 126t90 200z" />
<glyph unicode="A" horiz-adv-x="1107" d="M1024 0h-207q0 2 -72 471q-135 -31 -231 -31q-94 0 -213 31l-242 -471h-125l760 1403l107 24zM737 547l-80 588l-311 -586q90 -29 180 -29q86 0 211 27z" />
<glyph unicode="B" horiz-adv-x="1314" d="M1233 1135v-16q0 -153 -113 -253q-104 -92 -278 -121l-2 -12q137 0 232 -81t99 -199q0 -10 1 -20q0 -218 -181 -345q-166 -117 -405 -117q-311 0 -426 127l231 1305h408q424 0 434 -268zM1034 1124q-6 184 -282 185h-183l-94 -531q82 -4 131 -4q428 0 429 332q-1 8 -1 18 zM967 467q-6 219 -289 219h-219l-97 -545q70 -74 240 -73q176 0 274 111q92 105 91 267v21z" />
<glyph unicode="C" horiz-adv-x="1157" d="M1260 1378l-23 -123q-166 74 -293 74q-291 0 -444 -278q-120 -216 -120 -502q0 -23 1 -45q6 -184 82 -299q88 -131 246 -131q109 0 327 69l4 -104q-176 -55 -383 -55q-250 0 -378 141q-117 127 -125 352q-1 21 -1 42q0 341 191 601q221 299 580 299q158 0 336 -41z" />
<glyph unicode="D" horiz-adv-x="1429" d="M1368 911q1 -20 1 -40q0 -326 -189 -578q-217 -293 -559 -293h-461l250 1401h411q262 0 404 -131q135 -126 143 -359zM1163 965q-12 344 -368 344h-203l-213 -1200h205q334 0 479 278q102 196 101 508q0 35 -1 70z" />
<glyph unicode="E" horiz-adv-x="1153" d="M1153 1309h-565l-96 -531h479v-92h-494l-104 -577h676v-109h-889l250 1403h743v-94z" />
<glyph unicode="F" horiz-adv-x="1073" d="M1153 1309h-565l-96 -531h483v-92h-498l-123 -686h-194l250 1403h743v-94z" />
<glyph unicode="G" horiz-adv-x="1304" d="M1305 1358l-27 -123q-184 94 -346 94q-289 0 -447 -303q-125 -237 -125 -533v-36q10 -383 338 -383q109 0 238 37l65 374h-282v93h485l-92 -527q-297 -72 -471 -71q-242 0 -373 133q-119 123 -127 336q-1 26 -1 51q0 347 184 610q217 311 585 311q212 0 396 -63z" />
<glyph unicode="H" horiz-adv-x="1531" d="M1450 1403l-250 -1403h-199l121 684h-647l-121 -684h-194l250 1403h194l-112 -627h647l112 627h199z" />
<glyph unicode="I" horiz-adv-x="692" d="M610 1403l-250 -1403h-200l250 1403h200z" />
<glyph unicode="J" horiz-adv-x="770" d="M793 696h-222l-125 -714l-454 -318l-33 62l295 294l119 676h-203v66h215q14 82 96 502q-76 109 -213 108q-143 0 -229 -76v84q96 90 244 90q145 0 282 -108l31 41h104l-116 -641h209v-66z" />
<glyph unicode="K" horiz-adv-x="1288" d="M1319 1403l-531 -635l349 -768h-217l-289 711l543 692h145zM604 1403l-250 -1403h-194l250 1403h194z" />
<glyph unicode="L" horiz-adv-x="960" d="M940 0h-780l250 1403h194l-231 -1294h567v-109z" />
<glyph unicode="M" horiz-adv-x="1816" d="M1735 1403l-224 -1403h-174l211 1223l-714 -1223h-84l-258 1219l-232 -1219h-100l278 1401h209l236 -1131l661 1133h191z" />
<glyph unicode="N" horiz-adv-x="1521" d="M1440 1401l-250 -1401h-100l-615 1157l-207 -1159h-108l250 1405h163l568 -1069l190 1067h109z" />
<glyph unicode="O" horiz-adv-x="1447" d="M1386 870q0 -356 -198 -610q-215 -279 -563 -278q-246 0 -371 153q-113 139 -113 375q0 352 195 616q215 289 557 293h6q245 0 373 -157q114 -144 114 -392zM1182 961q0 154 -62 247q-78 119 -243 119q-287 0 -422 -301q-102 -227 -103 -559q0 -389 303 -389 q287 0 424 313q103 236 103 570z" />
<glyph unicode="P" horiz-adv-x="1173" d="M1235 1116q0 -205 -191 -340q-150 -106 -380 -151l-19 61q164 55 266 166q113 123 113 278q0 102 -54.5 140.5t-174.5 38.5h-207l-234 -1311h-194l250 1405h442q168 0 268 -66q115 -76 115 -221z" />
<glyph unicode="Q" horiz-adv-x="1490" d="M1767 -336q-377 -131 -600 -131q-279 0 -456 111q-197 123 -234 360l-76 45v78q176 -51 242 -51q283 0 418 315q102 236 102 570q0 154 -63 247q-78 119 -242 119q-223 0 -369 -180q-133 -164 -133 -377q0 -141 39 -211q53 -94 193 -94v-76h-99q-166 0 -258 121 q-74 98 -73 233q0 246 184 447q209 229 532 229q250 0 377 -159q115 -143 115 -390q0 -326 -170 -571q-182 -266 -485 -309q41 -150 178 -247t319 -103q10 0 20 -1q202 0 539 117v-92z" />
<glyph unicode="R" horiz-adv-x="1314" d="M1233 1120q0 -156 -83 -264t-235 -147q123 -57 154 -160q16 -55 16 -252q0 -131 9 -174q12 -57 51 -57h49v-78h-86q-125 0 -171 51t-46 176q0 25 2 76v78q0 238 -127 317h-291l-121 -686h-194l248 1403h442q168 0 268 -64q115 -74 115 -219zM1022 1135q0 100 -54.5 137 t-174.5 37h-207l-94 -531l213 -4h10q307 0 307 361z" />
<glyph unicode="S" horiz-adv-x="1136" d="M1114 1217l-117 -23q-27 133 -239 133q-141 0 -248 -70q-121 -82 -121 -217q0 -123 166 -178l309 -90q166 -78 166 -258q0 -246 -168 -393q-157 -141 -394 -142q-3 0 -7 1q-184 2 -273 53q-111 61 -122 219h131q10 -84 88 -131q72 -43 176 -43q152 0 270 90 q129 98 129 246q0 133 -168 194l-309 97q-168 76 -168 241q0 217 172 350q156 123 379 123q311 1 348 -202z" />
<glyph unicode="T" horiz-adv-x="929" d="M1161 1300q-176 -90 -323 -90q-63 0 -136 29l-221 -1239h-194l231 1303q-49 14 -94 14q-154 0 -346 -92v96q197 111 371 111q78 0 203.5 -53.5t201.5 -53.5q174 0 307 70v-95z" />
<glyph unicode="U" horiz-adv-x="1402" d="M1403 1403l-127 -709q-59 -332 -186 -501q-160 -211 -451 -211q-246 0 -352 108q-88 90 -88 275q0 111 39 331l127 707h196l-127 -703q-45 -252 -45 -335q0 -295 266 -295q242 0 371 211q88 143 137 417l125 705h115z" />
<glyph unicode="V" horiz-adv-x="1171" d="M1282 1399l-725 -1399h-123l-248 1401h209l187 -1149l569 1147h131z" />
<glyph unicode="W" horiz-adv-x="1683" d="M1804 1401l-532 -1401h-146l-223 799l-512 -799h-98l-49 1401h205l18 -1122l455 710h125l202 -737l426 1149h129z" />
<glyph unicode="X" horiz-adv-x="1269" d="M1329 1401l-555 -621l379 -780h-235l-293 629l-510 -629h-166l620 719l-315 682h227l234 -535l456 535h158z" />
<glyph unicode="Y" horiz-adv-x="1052" d="M1192 1317q-111 0 -236 -160q-84 -106 -239 -385l-86 -154l-109 -618h-196l112 629l-235 774h207l178 -662q14 25 51 99q150 287 219 379q158 209 334 208v-110z" />
<glyph unicode="Z" horiz-adv-x="1202" d="M1233 1294l-965 -1185h787v-109h-1090l1077 1309h-763v94h954v-109z" />
<glyph unicode="[" horiz-adv-x="587" d="M506 -246h-342v1649h342v-80h-184v-1489h184v-80z" />
<glyph unicode="\" horiz-adv-x="759" d="M649 -195h-143l-324 1598h142z" />
<glyph unicode="]" horiz-adv-x="587" d="M424 -246h-342v80h184v1489h-184v80h342v-1649z" />
<glyph unicode="^" horiz-adv-x="1028" d="M776 1118l-88 25l-176 180l-174 -180l-100 -25l229 338h90z" />
<glyph unicode="_" horiz-adv-x="821" d="M766 -137h-821v110h821v-110z" />
<glyph unicode="`" horiz-adv-x="1028" d="M629 1165l-90 -20l-334 332l192 8z" />
<glyph unicode="a" horiz-adv-x="1013" d="M1018 989q-39 -102 -74 -235q-88 -324 -151 -754h-160l57 299l-10 12q-225 -252 -516 -338q-49 207 -49 355q0 244 130 443.5t341 266.5q121 -72 223 -184l41 135h168zM762 731q-18 53 -70 105q-61 59 -133 75q-133 -45 -211 -235q-61 -154 -61 -309q0 -115 28 -230 q349 150 447 594z" />
<glyph unicode="b" horiz-adv-x="1038" d="M1018 932l-29 -187q-51 -330 -219 -542q-182 -229 -438 -230q-92 0 -234 58l267 1489l184 98l-178 -885q90 127 215 207t237 80q113 0 195 -88zM786 639q25 145 25 168q0 88 -98 88q-68 0 -172.5 -83t-171.5 -194l-82 -485q57 -59 143 -59q117 0 214 141t132 360z" />
<glyph unicode="c" horiz-adv-x="856" d="M934 905l-125 -76q-76 98 -176 99q-160 0 -254 -217q-74 -172 -74 -361q0 -121 53 -196q59 -86 170 -86q76 0 129 26q43 23 127 94l37 -43q-143 -172 -332 -172q-184 0 -280 115q-86 105 -86 279q0 242 145 436q160 213 400 213q166 0 266 -111z" />
<glyph unicode="d" horiz-adv-x="1030" d="M1147 1618l-180 -776q-131 -565 -131 -842h-160l31 270l-11 9q-57 -49 -219 -166l-18 -13q-131 -88 -269 -127q-53 201 -53 373q0 227 134.5 428t332.5 262q90 -43 221 -153l136 635zM799 754q-23 35 -54 63q-72 68 -161 92q-111 -35 -189 -184q-84 -158 -84 -352 q0 -131 31 -230q100 39 178 97q186 135 236 335z" />
<glyph unicode="e" horiz-adv-x="958" d="M954 864l-61 -301l-502 -110l15 77l346 101q31 129 30 162q0 133 -139 133q-162 0 -256 -217q-76 -172 -76 -363q0 -276 189 -276q96 0 157.5 26.5t128.5 93.5l37 -45q-129 -172 -344 -172q-178 0 -272 117q-84 102 -84 272q0 246 145 441q160 213 398 213 q210 0 288 -152z" />
<glyph unicode="f" horiz-adv-x="696" d="M1190 1599l-53 -108q-51 68 -203 68q-178 0 -272 -129q-74 -104 -115 -328l-21 -113h269v-84h-287l-158 -905q-53 -303 -383 -438l-24 96q57 37 102 84q109 113 133 258l158 905h-184v84h200l29 156q45 240 187.5 367.5t363.5 127.5q135 0 258 -41z" />
<glyph unicode="g" horiz-adv-x="1036" d="M1049 991l-107 -286q-119 -319 -119 -619q0 -248 -157.5 -401.5t-395.5 -153.5q-147 0 -247.5 92t-100.5 227l172 87q0 -98 47 -195q61 -127 174 -127q156 0 246 125q84 117 84 291q0 141 39 325l-18 11q-76 -94 -213 -189q-150 -102 -267 -127q-45 139 -45 348 q0 197 125 379q133 195 340 260q109 -66 223 -182l60 135h160zM782 727q-55 145 -209 184q-127 -51 -198 -223q-59 -145 -60 -309q0 -88 27 -164q92 39 166 96q182 137 252 348q8 23 22 68z" />
<glyph unicode="h" horiz-adv-x="1081" d="M1032 922q-35 -145 -65 -291q-74 -346 -117 -631h-170l143 801q2 12 2 22q0 77 -108 76q-190 0 -365 -360l-94 -539h-160l269 1518l178 100l-162 -909q184 307 440 307q137 0 209 -94z" />
<glyph unicode="i" horiz-adv-x="516" d="M567 1444q0 -49 -33.5 -83t-80.5 -34q-49 0 -83 34t-34 83q0 47 33.5 81t83.5 34q47 0 80.5 -34t33.5 -81zM453 989l-174 -991h-162l174 991h162z" />
<glyph unicode="j" horiz-adv-x="491" d="M535 1444q0 -49 -34 -83t-81 -34q-49 0 -83 34t-34 83q0 47 34 81t83 34q47 0 81 -34t34 -81zM418 989l-189 -1073l-362 -254l-37 49l246 248l182 1030h160z" />
<glyph unicode="k" horiz-adv-x="958" d="M999 922q0 -295 -346 -498l232 -424h-201l-217 428q80 25 184 125q141 131 142 270q0 74 -111 74q-160 0 -313 -260l-111 -637h-160l269 1518l172 84l-146 -824q195 238 379 238q170 0 227 -94z" />
<glyph unicode="l" horiz-adv-x="518" d="M557 1608l-268 -1608h-172l268 1518z" />
<glyph unicode="m" horiz-adv-x="1579" d="M1530 922q-39 -166 -70 -320q-76 -365 -108 -602h-174l143 801q2 12 2 22q0 76 -74 76q-190 0 -356 -360l-94 -539h-160l141 801q2 12 2 22q0 76 -73 76q-190 0 -357 -360l-94 -539h-160l172 954l174 84l-61 -329q170 307 426 307q98 0 160 -62l-45 -245q170 307 426 307 q119 0 180 -94z" />
<glyph unicode="n" horiz-adv-x="1081" d="M1032 922l-69 -320q-74 -365 -107 -602h-176l143 801q2 12 2 22q0 77 -108 76q-190 0 -365 -360l-94 -539h-160l172 954l174 84l-61 -329q184 307 440 307q137 0 209 -94z" />
<glyph unicode="o" horiz-adv-x="991" d="M948 627q0 -248 -133 -441q-147 -213 -373 -213q-150 0 -235.5 110t-85.5 292q0 244 137 434q150 207 373 207q147 0 232 -104.5t85 -284.5zM768 598q0 137 -41 225q-45 100 -127 101q-147 0 -229 -181q-66 -141 -68 -321v-12q0 -134 45 -228q47 -104 123 -104 q158 0 236 184q61 143 61 336z" />
<glyph unicode="p" horiz-adv-x="1011" d="M1024 936l-39 -248q-55 -350 -323 -520q-113 -72 -259 -100v73q98 20 175 80q182 139 223 443l8 61q6 39 6 68q0 100 -94 100q-158 0 -332 -277l-180 -1034h-168l242 1358l157 86l-51 -303q186 293 418 293q125 0 217 -80z" />
<glyph unicode="q" horiz-adv-x="974" d="M969 973l-256 -1391h-164l113 688l-11 6q-254 -250 -481 -303q-55 231 -55 363q0 293 170 487q180 207 479 207q86 0 205 -57zM784 870q-94 31 -213 31q-147 0 -219 -172q-59 -139 -59 -364q0 -123 33 -213q96 43 170 96q176 129 211 280z" />
<glyph unicode="r" horiz-adv-x="694" d="M825 877h-51q-172 0 -416 -365l-90 -512h-159l165 942l175 84l-60 -344l10 16q199 317 426 318v-139z" />
<glyph unicode="s" horiz-adv-x="811" d="M778 936l-35 -90q-94 80 -217 80q-88 0 -153 -43q-76 -53 -76 -138q0 -74 111 -122l213 -86q109 -65 108 -179q0 -188 -106 -283t-308 -95q-205 0 -286 126l57 95q104 -127 229 -127q98 0 177 47q92 58 92 152q0 80 -111 130l-213 91q-111 63 -111 170q0 162 123 262 q111 90 269 90q143 0 237 -80z" />
<glyph unicode="t" horiz-adv-x="712" d="M719 903h-230l-127 -776l250 139l15 -73l-377 -220l-76 27l148 903h-152v86h172l154 305l67 29l-59 -334h215v-86z" />
<glyph unicode="u" horiz-adv-x="1044" d="M1028 1022q-43 -166 -76 -330q-78 -389 -92 -692h-170l27 272l-10 4q-217 -227 -482 -303q-51 117 -51 318q0 211 111 698h172q-109 -403 -109 -622q0 -121 29 -215q90 27 164 79q176 131 233 385l72 318z" />
<glyph unicode="v" horiz-adv-x="813" d="M956 989l-555 -989h-92l-231 989h186l121 -610l16 -197l82 170l355 637h118z" />
<glyph unicode="w" horiz-adv-x="1318" d="M1399 989l-389 -989h-103q-74 57 -135 174q-78 141 -88 291q-23 -49 -131 -211q-111 -143 -277 -254h-83l-43 989h186l-2 -792q106 59 219 235q117 188 149 377q8 53 31 180h156l-33 -182q-14 -82 -14 -182q0 -336 139 -428l313 792h105z" />
<glyph unicode="x" horiz-adv-x="915" d="M958 989l-399 -426l283 -563h-191l-213 446l-379 -446h-143l475 520l-252 469h199l176 -350l299 350h145z" />
<glyph unicode="y" horiz-adv-x="825" d="M963 989l-801 -1433l-117 43q111 141 264 401l-231 989h201l149 -786l418 786h117z" />
<glyph unicode="z" horiz-adv-x="903" d="M920 911l-676 -809q78 -29 145 -28q219 0 469 153l2 -106q-252 -156 -502 -156q-252 0 -370 58l723 876h-492v90h701v-78z" />
<glyph unicode="{" horiz-adv-x="608" d="M465 -326l-45 -84l-283 164l96 733l-192 115l192 111l-96 733l279 164l49 -84l-164 -109l100 -725l-178 -92l178 -94l-100 -723z" />
<glyph unicode="|" horiz-adv-x="622" d="M389 -485h-90v2123h90v-2123z" />
<glyph unicode="}" horiz-adv-x="608" d="M567 600l-192 -111l98 -733l-280 -166l-50 86l164 109l-100 723l178 92l-178 94l100 723l-164 109l45 84l285 -164l-98 -733z" />
<glyph unicode="~" horiz-adv-x="1138" d="M977 670l-248 -174l-346 139l-186 -78l-56 43l248 168l361 -137l170 80z" />
<glyph unicode="&#xa1;" horiz-adv-x="552" d="M399 897q0 -51 -35.5 -87t-87.5 -36q-51 0 -86.5 36t-35.5 87t35.5 86t86.5 35t87 -35t36 -86zM377 -344h-201l62 997h77z" />
<glyph unicode="&#xa2;" horiz-adv-x="856" d="M934 905l-125 -76q-76 98 -176 99q-160 0 -254 -217q-74 -172 -74 -361q0 -121 53 -196q59 -86 170 -86q76 0 129 26q43 23 127 94l37 -43q-141 -170 -295 -170l-51 -280h-67l49 278q-156 0 -248 119q-84 109 -86 268q-2 236 145 439q158 217 373 217l49 280h68l-49 -280 q127 0 225 -111z" />
<glyph unicode="&#xa3;" horiz-adv-x="1114" d="M1083 905l-125 -76q-76 98 -176 99q-205 0 -295 -340h394v-62h-406q-6 -31 -16 -106h422v-62h-426q0 -123 49 -198q57 -92 174 -92q76 0 129 26q43 23 127 94l37 -43q-143 -172 -332 -172q-184 0 -281 115q-86 102 -86 270h-112v62h114q6 57 19 106h-133v62h149 q61 184 189 299q141 129 319 129q166 0 266 -111z" />
<glyph unicode="&#xa4;" horiz-adv-x="1114" d="M1028 279l-72 -74l-120 127q-119 -102 -283 -103q-162 0 -283 103l-120 -127l-74 74l125 122q-100 123 -101 281q0 166 101 281l-125 120l74 74l122 -123q123 100 281 101q160 0 283 -101l120 123l72 -74l-121 -120q96 -115 97 -281q0 -160 -97 -279zM852 682 q0 125 -87 215t-212 90t-212 -89t-87 -216t87 -216t212 -89t212 90t87 215z" />
<glyph unicode="&#xa5;" />
<glyph unicode="&#xa6;" horiz-adv-x="733" />
<glyph unicode="&#xa7;" horiz-adv-x="960" d="M854 588q0 -209 -195 -283q166 -104 166 -260q0 -139 -91 -229t-238 -90q-145 0 -293 73v78h47q133 -74 237 -74q98 0 154 58q51 51 51 137q0 111 -151 192l-281 142q-152 98 -151 246q0 197 190 284q-137 96 -137 240q0 135 97 222t239 87q147 0 241 -53v-80h-47 q-125 53 -180 53q-106 0 -166.5 -48t-60.5 -130q0 -100 147 -178l275 -141q147 -99 147 -246zM737 528q0 74 -110 146l-234 125q-76 -2 -123 -50.5t-47 -117.5q0 -78 86 -137q39 -27 260 -136q78 2 123 50t45 120z" />
<glyph unicode="&#xa8;" horiz-adv-x="1013" d="M807 1294q0 -45 -32 -77.5t-79 -32.5q-45 0 -77.5 32.5t-32.5 77.5t32.5 78t77.5 33q47 0 79 -32t32 -79zM432 1294q0 -45 -31.5 -77.5t-78.5 -32.5q-45 0 -78 32.5t-33 77.5q0 47 32.5 79t78.5 32q47 0 78.5 -32t31.5 -79z" />
<glyph unicode="&#xa9;" horiz-adv-x="1366" d="M1274 588q0 -244 -173 -416t-417 -172q-246 0 -419 172t-173 416t173 416t417 172t418 -173t174 -415zM1192 588q0 213 -148.5 363.5t-359.5 150.5q-213 0 -362.5 -150.5t-149.5 -363.5t149.5 -363.5t360.5 -150.5t360.5 150.5t149.5 363.5zM932 373q-90 -129 -252 -129 q-139 0 -223 104q-76 94 -80 232q-4 147 83 248.5t228 101.5q147 0 232 -72l-68 -51q-59 51 -139 51q-100 0 -162 -92q-53 -78 -51 -182q2 -98 47 -172q55 -86 147 -86q123 0 195 86z" />
<glyph unicode="&#xaa;" horiz-adv-x="1003" d="M936 428l-315 -180l-37 8q-8 109 4 197q-55 -82 -324 -217q-90 133 -90 280q0 162 127 338t258 176q94 0 178 -131l41 90h123q-55 -127 -96 -233q-96 -254 -100 -355q55 29 184 119zM807 2h-717v88h717v-88zM684 809q-90 117 -192 117q-78 -57 -132 -183 q-47 -111 -47 -194q0 -92 41 -154q59 23 109 56q117 78 158 188z" />
<glyph unicode="&#xab;" horiz-adv-x="1114" d="M1069 852l-14 -84l-299 -309l188 -309l-14 -87l-406 396zM657 852l-14 -84l-297 -309l186 -309l-14 -87l-405 396z" />
<glyph unicode="&#xac;" horiz-adv-x="1009" d="M815 287q0 -125 -87 -213t-212 -88t-213 88t-88 213v307q0 57 57 57h25l-61 84q-41 55 -41 125q0 102 84 164q53 39 120 39q104 0 166 -84l119 -164l-84 -59l-119 162q-31 41 -82 40q-33 0 -59 -18q-43 -31 -43 -82q0 -35 20 -61l107 -146h334q57 0 57 -57v-307zM623 434 q0 45 -32 77t-75 32q-45 0 -76.5 -32t-31.5 -77q0 -63 61 -96l-49 -195h190l-49 195q62 30 62 96z" />
<glyph unicode="&#xad;" horiz-adv-x="1067" d="M975 457h-883v116h883v-116z" />
<glyph unicode="&#x2212;" horiz-adv-x="1067" d="M975 457h-883v116h883v-116z" />
<glyph unicode="&#xae;" horiz-adv-x="1368" d="M1366 588q0 -244 -174 -416t-418 -172q-246 0 -419 172t-173 416t173 416t419 172q244 0 418 -173t174 -415zM1284 588q0 211 -149.5 361.5t-360.5 150.5t-360.5 -149.5t-149.5 -362.5t149.5 -363.5t360.5 -150.5t360.5 150.5t149.5 363.5zM1030 268h-37q-80 0 -104 109 l-21 110q-18 59 -63 86h-117v-305h-106v645h206q205 0 205 -172q0 -111 -94 -147q70 -37 90 -176q14 -94 31 -94h10v-56zM881 745q0 61 -25 84t-86 23h-82v-219h86q59 0 83 24.5t24 87.5z" />
<glyph unicode="&#xaf;" horiz-adv-x="1028" d="M715 1196h-416v78h416v-78z" />
<glyph unicode="&#x2c9;" horiz-adv-x="1028" d="M715 1196h-416v78h416v-78z" />
<glyph unicode="&#xb0;" horiz-adv-x="806" d="M700 1110q0 -125 -86 -212t-211 -87q-123 0 -210 87t-87 212q0 123 87.5 211t209.5 88q125 0 211 -87t86 -212zM578 1108q0 76 -50.5 127t-124.5 51t-125 -51t-51 -127q0 -70 51.5 -122t120.5 -52q76 0 127.5 50t51.5 124z" />
<glyph unicode="&#xb1;" horiz-adv-x="1091" />
<glyph unicode="&#xb2;" d="M995 932l-45 -273q-63 -381 -196 -530q-139 -156 -437 -156q-92 0 -233 58l266 1489l185 98l-179 -885q90 127 215 207t238 80q112 0 186 -88zM772 639q27 160 27 172q0 86 -113 86q-68 0 -165 -83t-167 -196l-82 -485q57 -59 144 -59q168 0 243 121q51 80 84 276z" />
<glyph unicode="&#xb3;" />
<glyph unicode="&#xb4;" horiz-adv-x="1026" d="M911 1485l-321 -316l-107 23l236 301z" />
<glyph unicode="&#xb5;" />
<glyph unicode="&#x3bc;" />
<glyph unicode="&#xb6;" horiz-adv-x="1374" d="M1085 -430h-102v1896h-162v-1896h-104v967h-47q-190 0 -333.5 149.5t-143.5 347.5q0 219 144 364.5t361 145.5h387v-1974z" />
<glyph unicode="&#xb7;" />
<glyph unicode="&#x2219;" />
<glyph unicode="&#xb8;" horiz-adv-x="968" d="M649 -315q0 -72 -52 -120t-146 -48q-92 0 -177 75l23 39q66 -45 154 -45q84 0 84 84q0 57 -46.5 94t-109.5 37h-8l159 185h76l-108 -140q151 -36 151 -161z" />
<glyph unicode="&#xb9;" horiz-adv-x="1030" d="M1083 1618l-180 -776q-131 -565 -131 -842h-160l31 270l-10 9q-45 -49 -195 -166l-18 -13q-131 -88 -268 -127q-53 201 -54 373q0 227 138.5 449.5t289.5 222.5q115 0 236 -135l135 635zM739 780q-92 117 -207 117q-86 0 -170 -162q-90 -170 -90 -362q0 -131 31 -230 q92 39 164 97q174 135 223 335z" />
<glyph unicode="&#xba;" horiz-adv-x="1017" d="M1047 1092q-18 -72 -97 -123q-70 -45 -129 -45q59 -78 60 -185q0 -184 -109 -325q-119 -156 -299 -156q-119 0 -190.5 78t-71.5 211q0 176 115 317q121 150 295 150q61 0 110 -19q174 12 207 131zM823 0h-717v88h717v-88zM737 741q0 197 -143 197q-104 0 -176 -147 q-61 -125 -62 -248q0 -205 142 -205q113 0 182 149q57 123 57 254z" />
<glyph unicode="&#xbb;" horiz-adv-x="1114" d="M1034 457l-545 -394l15 84l297 310l-189 309l17 86zM623 457l-545 -394l14 84l299 310l-190 309l16 86z" />
<glyph unicode="&#xbc;" />
<glyph unicode="&#xbd;" horiz-adv-x="940" d="M709 1403l-131 -748h-156l117 668h-160l14 80h316zM817 455h-655v102h655v-102zM705 150q0 -133 -107 -189l-211 -84q-121 -66 -147 -217h411v-90h-575l18 100q31 164 150 238l200 87q100 44 101 150q0 133 -146 134q-88 0 -202 -46l-15 84q111 51 242 52q123 0 197 -50 q84 -56 84 -169z" />
<glyph unicode="&#xbe;" />
<glyph unicode="&#xbf;" horiz-adv-x="940" d="M852 881q0 -55 -40 -95.5t-95 -40.5q-57 0 -96 40t-39 96q0 55 38.5 95t96.5 40q55 0 95 -40t40 -95zM743 647l-47 -235q-18 -88 -131 -131q-193 -74 -196 -76q-100 -63 -101 -205q0 -152 119 -281q98 -106 199 -133l-49 -106q-221 61 -339 192t-118 318q0 164 110 241 q41 31 213 91q125 43 146 112l59 213h135z" />
<glyph unicode="&#xc0;" horiz-adv-x="1245" d="M1090 0h-207q0 2 -72 471q-135 -31 -231 -31q-94 0 -213 31l-242 -471h-125l760 1403l106 24zM803 547l-80 588l-311 -586q90 -29 180 -29q86 0 211 27z" />
<glyph unicode="&#xc1;" horiz-adv-x="1245" d="M1024 0h-207q0 2 -72 471q-135 -31 -231 -31q-94 0 -213 31l-242 -471h-125l760 1403l107 24zM737 547l-80 588l-311 -586q90 -29 180 -29q86 0 211 27zM1040 1827l-321 -316l-107 23l236 301z" />
<glyph unicode="&#xc2;" horiz-adv-x="1245" d="M1090 0h-207q0 2 -72 471q-135 -31 -231 -31q-94 0 -213 31l-242 -471h-125l760 1403l106 24zM803 547l-80 588l-311 -586q90 -29 180 -29q86 0 211 27z" />
<glyph unicode="&#xc3;" horiz-adv-x="1245" d="M1090 0h-207q0 2 -72 471q-135 -31 -231 -31q-94 0 -213 31l-242 -471h-125l760 1403l106 24zM803 547l-80 588l-311 -586q90 -29 180 -29q86 0 211 27z" />
<glyph unicode="&#xc4;" horiz-adv-x="1245" d="M1024 0h-207q0 2 -72 471q-135 -31 -231 -31q-94 0 -213 31l-242 -471h-125l760 1403l107 24zM737 547l-80 588l-311 -586q90 -29 180 -29q86 0 211 27zM1114 1513q0 -45 -32 -77.5t-79 -32.5q-45 0 -77.5 32.5t-32.5 77.5t32.5 78t77.5 33q47 0 79 -32t32 -79zM739 1513 q0 -45 -31.5 -77.5t-78.5 -32.5q-45 0 -78 32.5t-33 77.5q0 47 32.5 79t78.5 32q47 0 78.5 -32t31.5 -79z" />
<glyph unicode="&#xc5;" horiz-adv-x="1245" />
<glyph unicode="&#xc6;" />
<glyph unicode="&#xc7;" horiz-adv-x="1308" d="M1260 1378l-23 -123q-166 74 -293 74q-291 0 -444 -278q-120 -216 -120 -502q0 -23 1 -45q6 -184 82 -299q88 -131 246 -131q109 0 327 69l4 -104q-176 -55 -383 -55q-250 0 -378 141q-117 127 -125 352q-1 21 -1 42q0 341 191 601q221 299 580 299q158 0 336 -41z M850 -315q0 -72 -52 -120t-146 -48q-92 0 -177 75l23 39q66 -45 154 -45q84 0 84 84q0 57 -46.5 94t-109.5 37h-8l159 185h76l-108 -140q151 -36 151 -161z" />
<glyph unicode="&#xc8;" horiz-adv-x="1241" d="M1114 1309h-565l-96 -531h479v-92h-494l-104 -577h676v-109h-889l250 1403h743v-94z" />
<glyph unicode="&#xc9;" horiz-adv-x="1241" d="M1153 1309h-565l-96 -531h479v-92h-494l-104 -577h676v-109h-889l250 1403h743v-94zM979 1825l-321 -316l-107 23l236 301z" />
<glyph unicode="&#xca;" horiz-adv-x="1241" d="M1114 1309h-565l-96 -531h479v-92h-494l-104 -577h676v-109h-889l250 1403h743v-94z" />
<glyph unicode="&#xcb;" horiz-adv-x="1241" d="M1114 1309h-565l-96 -531h479v-92h-494l-104 -577h676v-109h-889l250 1403h743v-94z" />
<glyph unicode="&#xcc;" horiz-adv-x="692" d="M610 1403l-250 -1403h-200l250 1403h200zM439 1476l-90 -20l-334 332l192 8z" />
<glyph unicode="&#xcd;" horiz-adv-x="690" d="M610 1403l-250 -1403h-200l250 1403h200zM739 1827l-321 -316l-107 23l236 301z" />
<glyph unicode="&#xce;" horiz-adv-x="692" d="M610 1403l-250 -1403h-200l250 1403h200zM610 1394l-88 25l-176 180l-174 -180l-100 -25l229 338h90z" />
<glyph unicode="&#xcf;" horiz-adv-x="692" d="M610 1403l-250 -1403h-200l250 1403h200zM645 1515q0 -45 -32 -77.5t-79 -32.5q-45 0 -77.5 32.5t-32.5 77.5t32.5 78t77.5 33q47 0 79 -32t32 -79zM270 1515q0 -45 -31.5 -77.5t-78.5 -32.5q-45 0 -78 32.5t-33 77.5q0 47 32.5 79t78.5 32q47 0 78.5 -32t31.5 -79z" />
<glyph unicode="&#xd0;" horiz-adv-x="974" />
<glyph unicode="&#xd1;" horiz-adv-x="1566" d="M1223 1679l-260 -182l-365 145l-223 -104l-31 43l260 176l379 -143l201 108zM1348 1401l-250 -1401h-101l-614 1157l-207 -1159h-108l249 1405h164l568 -1069l190 1067h109z" />
<glyph unicode="&#xd2;" horiz-adv-x="1374" d="M1290 696q0 -319 -151 -510q-164 -205 -467 -204q-295 0 -453 217q-139 190 -139 497q0 311 149 506q164 215 457 217t457 -217q147 -199 147 -506zM1067 700q0 293 -49 418q-82 209 -332 209t-334 -209q-49 -125 -49 -420q0 -281 57 -413q86 -207 326 -207 q244 0 328 211q53 128 53 411z" />
<glyph unicode="&#xd3;" horiz-adv-x="1374" d="M1386 870q0 -356 -198 -610q-215 -279 -563 -278q-246 0 -371 153q-113 139 -113 375q0 352 195 616q215 289 557 293h6q245 0 373 -157q114 -144 114 -392zM1182 961q0 154 -62 247q-78 119 -243 119q-287 0 -422 -301q-102 -227 -103 -559q0 -389 303 -389 q287 0 424 313q103 236 103 570zM1097 1825l-321 -316l-107 23l236 301z" />
<glyph unicode="&#xd4;" horiz-adv-x="1415" d="M1329 870q0 -356 -199 -610q-215 -279 -563 -278q-246 0 -370 153q-113 139 -113 375q0 352 195 616q215 289 557 293q250 2 378 -157q115 -144 115 -392zM1124 961q0 154 -61 247q-78 119 -244 119q-287 0 -422 -301q-102 -227 -102 -559q0 -389 303 -389q287 0 424 313 q102 236 102 570z" />
<glyph unicode="&#xd5;" horiz-adv-x="1415" d="M1329 870q0 -356 -199 -610q-215 -279 -563 -278q-246 0 -370 153q-113 139 -113 375q0 352 195 616q215 289 557 293q250 2 378 -157q115 -144 115 -392zM1124 961q0 154 -61 247q-78 119 -244 119q-287 0 -422 -301q-102 -227 -102 -559q0 -389 303 -389q287 0 424 313 q102 236 102 570z" />
<glyph unicode="&#xd6;" horiz-adv-x="1374" d="M1290 696q0 -319 -151 -510q-164 -205 -467 -204q-295 0 -453 217q-139 190 -139 497q0 311 149 506q164 215 457 217t457 -217q147 -199 147 -506zM1067 700q0 293 -49 418q-82 209 -332 209t-334 -209q-49 -125 -49 -420q0 -281 57 -413q86 -207 326 -207 q244 0 328 211q53 128 53 411z" />
<glyph unicode="&#xd7;" horiz-adv-x="1200" d="M1051 766l-369 -311l258 -312l-98 -84l-256 312l-369 -312l-67 84l366 312l-256 311l96 84l258 -313l367 313z" />
<glyph unicode="&#xd8;" horiz-adv-x="1415" d="M1427 1309l-124 -125q66 -129 65 -314q0 -356 -199 -610q-215 -279 -563 -278q-236 0 -362 143l-129 -129l-56 55l140 139q-76 125 -76 320q0 352 194 616q215 289 557 293q258 2 386 -168l112 113zM1139 1130q-66 197 -281 197q-287 0 -422 -301q-102 -227 -102 -559 q0 -78 10 -131zM1163 961q0 53 -4 79l-790 -790q72 -172 268 -172q287 0 424 313q102 236 102 570z" />
<glyph unicode="&#xd9;" horiz-adv-x="1433" d="M1380 1403l-127 -709q-59 -334 -186 -501q-160 -211 -451 -211q-246 0 -352 108q-88 90 -88 275q0 111 39 331l127 707h197l-127 -703q-45 -252 -45 -335q0 -295 266 -295q242 0 371 211q88 143 137 417l125 705h114z" />
<glyph unicode="&#xda;" horiz-adv-x="1433" d="M1403 1403l-127 -709q-59 -332 -186 -501q-160 -211 -451 -211q-246 0 -352 108q-88 90 -88 275q0 111 39 331l127 707h196l-127 -703q-45 -252 -45 -335q0 -295 266 -295q242 0 371 211q88 143 137 417l125 705h115zM1126 1825l-321 -316l-107 23l236 301z" />
<glyph unicode="&#xdb;" horiz-adv-x="1433" d="M1380 1403l-127 -709q-59 -334 -186 -501q-160 -211 -451 -211q-246 0 -352 108q-88 90 -88 275q0 111 39 331l127 707h197l-127 -703q-45 -252 -45 -335q0 -295 266 -295q242 0 371 211q88 143 137 417l125 705h114z" />
<glyph unicode="&#xdc;" horiz-adv-x="1433" d="M1403 1403l-127 -709q-59 -332 -186 -501q-160 -211 -451 -211q-246 0 -352 108q-88 90 -88 275q0 111 39 331l127 707h196l-127 -703q-45 -252 -45 -335q0 -295 266 -295q242 0 371 211q88 143 137 417l125 705h115zM1186 1517q0 -45 -32 -77.5t-79 -32.5 q-45 0 -77.5 32.5t-32.5 77.5t32.5 78t77.5 33q47 0 79 -32t32 -79zM811 1517q0 -45 -31.5 -77.5t-78.5 -32.5q-45 0 -78 32.5t-33 77.5q0 47 32.5 79t78.5 32q47 0 78.5 -32t31.5 -79z" />
<glyph unicode="&#xdd;" />
<glyph unicode="&#xde;" />
<glyph unicode="&#xdf;" horiz-adv-x="1196" d="M1188 1253q-2 -205 -125 -288q-33 -23 -229 -84q-123 -39 -123 -133q0 -76 116 -125l213 -86q117 -68 117 -187q0 -371 -401 -370q-205 0 -291 126l78 80q76 -113 211 -112q98 0 172 47q86 55 86 149q0 82 -117 133l-213 91q-117 66 -117 178q0 193 121 258l227 78 q121 59 121 231q0 211 -211 211q-158 0 -237 -119q-63 -92 -103 -315q10 59 -180 -1016q-25 -137 -137 -260q-121 -131 -250 -131h-147l26 96h96q188 0 240 295l160 905h-185l17 84h184l10 70q35 236 170 358q129 115 334 115q184 0 281 -80q86 -74 86 -199z" />
<glyph unicode="&#xe0;" horiz-adv-x="1013" d="M1018 989q-39 -102 -74 -235q-88 -324 -151 -754h-160l57 299l-10 12q-225 -252 -516 -338q-49 207 -49 355q0 244 130 443.5t341 266.5q121 -72 223 -184l41 135h168zM762 731q-18 53 -70 105q-61 59 -133 75q-133 -45 -211 -235q-61 -154 -61 -309q0 -115 28 -230 q349 150 447 594zM848 1165l-90 -20l-334 332l192 8z" />
<glyph unicode="&#xe1;" horiz-adv-x="995" d="M1018 989q-39 -102 -74 -235q-88 -324 -151 -754h-160l57 299l-10 12q-225 -252 -516 -338q-49 207 -49 355q0 244 130 443.5t341 266.5q121 -72 223 -184l41 135h168zM762 731q-18 53 -70 105q-61 59 -133 75q-133 -45 -211 -235q-61 -154 -61 -309q0 -115 28 -230 q349 150 447 594zM1099 1485l-321 -316l-107 23l236 301z" />
<glyph unicode="&#xe2;" horiz-adv-x="997" d="M1018 989q-39 -102 -74 -235q-88 -324 -151 -754h-160l57 299l-10 12q-225 -252 -516 -338q-49 207 -49 355q0 244 130 443.5t341 266.5q121 -72 223 -184l41 135h168zM762 731q-18 53 -70 105q-61 59 -133 75q-133 -45 -211 -235q-61 -154 -61 -309q0 -115 28 -230 q349 150 447 594zM956 1180l-81 24l-146 180l-205 -180l-106 -24l291 338h90z" />
<glyph unicode="&#xe3;" horiz-adv-x="993" d="M1081 1339l-235 -170l-346 140l-242 -111v76l248 166l360 -137l215 124v-88zM1018 989q-39 -102 -74 -235q-88 -324 -151 -754h-160l57 299l-10 12q-225 -252 -516 -338q-49 207 -49 355q0 244 130 443.5t341 266.5q121 -72 223 -184l41 135h168zM762 731q-18 53 -70 105 q-61 59 -133 75q-133 -45 -211 -235q-61 -154 -61 -309q0 -115 28 -230q349 150 447 594z" />
<glyph unicode="&#xe4;" horiz-adv-x="1009" d="M1018 989q-39 -102 -74 -235q-88 -324 -151 -754h-160l57 299l-10 12q-225 -252 -516 -338q-49 207 -49 355q0 244 130 443.5t341 266.5q121 -72 223 -184l41 135h168zM762 731q-18 53 -70 105q-61 59 -133 75q-133 -45 -211 -235q-61 -154 -61 -309q0 -115 28 -230 q349 150 447 594zM989 1294q0 -45 -32 -77.5t-79 -32.5q-45 0 -77.5 32.5t-32.5 77.5t32.5 78t77.5 33q47 0 79 -32t32 -79zM614 1294q0 -45 -31.5 -77.5t-78.5 -32.5q-45 0 -78 32.5t-33 77.5q0 47 32.5 79t78.5 32q47 0 78.5 -32t31.5 -79z" />
<glyph unicode="&#xe5;" horiz-adv-x="1015" d="M926 1325q0 -82 -58.5 -139.5t-140.5 -57.5q-84 0 -141.5 57.5t-57.5 139.5t57.5 138.5t141.5 56.5q82 0 140.5 -56.5t58.5 -138.5zM844 1325q0 49 -35 84t-82 35q-49 0 -83 -35t-34 -84q0 -47 34 -82t83 -35q47 0 82 35t35 82zM1018 989q-39 -102 -74 -235 q-88 -324 -151 -754h-160l57 299l-10 12q-225 -252 -516 -338q-49 207 -49 355q0 244 130 443.5t341 266.5q121 -72 223 -184l41 135h168zM762 731q-18 53 -70 105q-61 59 -133 75q-133 -45 -211 -235q-61 -154 -61 -309q0 -115 28 -230q349 150 447 594z" />
<glyph unicode="&#xe6;" />
<glyph unicode="&#xe7;" horiz-adv-x="940" d="M934 905l-125 -76q-76 98 -176 99q-160 0 -254 -217q-74 -172 -74 -361q0 -121 53 -196q59 -86 170 -86q76 0 129 26q43 23 127 94l37 -43q-143 -172 -332 -172q-184 0 -280 115q-86 105 -86 279q0 242 145 436q160 213 400 213q166 0 266 -111zM512 -315q0 -72 -52 -120 t-146 -48q-92 0 -177 75l23 39q66 -45 154 -45q84 0 84 84q0 57 -46.5 94t-109.5 37h-8l159 185h76l-108 -140q151 -36 151 -161z" />
<glyph unicode="&#xe8;" horiz-adv-x="933" d="M651 1143l-90 -21l-334 332l193 8zM913 864l-61 -301l-502 -110l15 77l346 101q31 129 30 162q0 133 -139 133q-162 0 -256 -217q-76 -172 -76 -363q0 -276 189 -276q96 0 157.5 26.5t128.5 93.5l37 -45q-129 -172 -344 -172q-178 0 -272 117q-84 102 -84 272 q0 246 145 441q160 213 398 213q210 0 288 -152z" />
<glyph unicode="&#xe9;" horiz-adv-x="942" d="M1010 1485l-322 -316l-106 23l235 301zM913 864l-61 -301l-502 -110l15 77l346 101q31 129 30 162q0 133 -139 133q-162 0 -256 -217q-76 -172 -76 -363q0 -276 189 -276q96 0 157.5 26.5t128.5 93.5l37 -45q-129 -172 -344 -172q-178 0 -272 117q-84 102 -84 272 q0 246 145 441q160 213 398 213q210 0 288 -152z" />
<glyph unicode="&#xea;" horiz-adv-x="937" d="M897 1180l-84 24l-145 180l-205 -180l-105 -24l289 338h90zM913 864l-61 -301l-502 -110l15 77l346 101q31 129 30 162q0 133 -139 133q-162 0 -256 -217q-76 -172 -76 -363q0 -276 189 -276q96 0 157.5 26.5t128.5 93.5l37 -45q-129 -172 -344 -172q-178 0 -272 117 q-84 102 -84 272q0 246 145 441q160 213 398 213q210 0 288 -152z" />
<glyph unicode="&#xeb;" horiz-adv-x="937" d="M928 1294q0 -45 -32 -77.5t-79 -32.5q-45 0 -77.5 32.5t-32.5 77.5t32.5 78t77.5 33q47 0 79 -32t32 -79zM553 1294q0 -45 -32 -77.5t-79 -32.5q-45 0 -77.5 32.5t-32.5 77.5q0 47 32.5 79t77.5 32q47 0 79 -32t32 -79zM913 864l-61 -301l-502 -110l15 77l346 101 q31 129 30 162q0 133 -139 133q-162 0 -256 -217q-76 -172 -76 -363q0 -276 189 -276q96 0 157.5 26.5t128.5 93.5l37 -45q-129 -172 -344 -172q-178 0 -272 117q-84 102 -84 272q0 246 145 441q160 213 398 213q210 0 288 -152z" />
<glyph unicode="&#xec;" horiz-adv-x="489" d="M449 1165l-91 -20l-333 332l192 8zM430 989l-174 -991h-162l174 991h162z" />
<glyph unicode="&#xed;" horiz-adv-x="512" d="M422 989l-174 -991h-162l174 991h162zM739 1485l-321 -316l-107 23l236 301z" />
<glyph unicode="&#xee;" horiz-adv-x="475" d="M639 1180l-84 24l-143 180l-207 -180l-105 -24l289 338h90zM422 989l-174 -991h-162l174 991h162z" />
<glyph unicode="&#xef;" horiz-adv-x="446" d="M422 989l-174 -991h-162l174 991h162zM678 1294q0 -45 -32 -77.5t-79 -32.5q-45 0 -77.5 32.5t-32.5 77.5t32.5 78t77.5 33q47 0 79 -32t32 -79zM303 1294q0 -45 -31.5 -77.5t-78.5 -32.5q-45 0 -78 32.5t-33 77.5q0 47 32.5 79t78.5 32q47 0 78.5 -32t31.5 -79z" />
<glyph unicode="&#xf0;" horiz-adv-x="1013" />
<glyph unicode="&#xf1;" horiz-adv-x="1138" d="M1032 922l-69 -320q-74 -365 -107 -602h-176l143 801q2 12 2 22q0 77 -108 76q-190 0 -365 -360l-94 -539h-160l172 954l174 84l-61 -329q184 307 440 307q137 0 209 -94zM1088 1339l-236 -170l-346 140l-242 -111v76l248 166l361 -137l215 124v-88z" />
<glyph unicode="&#xf2;" horiz-adv-x="1001" d="M948 627q0 -248 -133 -441q-147 -213 -373 -213q-150 0 -235.5 110t-85.5 292q0 244 137 434q150 207 373 207q147 0 232 -104.5t85 -284.5zM768 598q0 137 -41 225q-45 100 -127 101q-147 0 -229 -181q-66 -141 -68 -321v-12q0 -134 45 -228q47 -104 123 -104 q158 0 236 184q61 143 61 336zM629 1165l-90 -20l-334 332l192 8z" />
<glyph unicode="&#xf3;" horiz-adv-x="1017" d="M948 627q0 -248 -133 -441q-147 -213 -373 -213q-150 0 -235.5 110t-85.5 292q0 244 137 434q150 207 373 207q147 0 232 -104.5t85 -284.5zM768 598q0 137 -41 225q-45 100 -127 101q-147 0 -229 -181q-66 -141 -68 -321v-12q0 -134 45 -228q47 -104 123 -104 q158 0 236 184q61 143 61 336zM936 1485l-321 -316l-107 23l236 301z" />
<glyph unicode="&#xf4;" horiz-adv-x="1001" d="M948 627q0 -248 -133 -441q-147 -213 -373 -213q-150 0 -235.5 110t-85.5 292q0 244 137 434q150 207 373 207q147 0 232 -104.5t85 -284.5zM768 598q0 137 -41 225q-45 100 -127 101q-147 0 -229 -181q-66 -141 -68 -321v-12q0 -134 45 -228q47 -104 123 -104 q158 0 236 184q61 143 61 336zM892 1180l-81 24l-146 180l-205 -180l-106 -24l291 338h90z" />
<glyph unicode="&#xf5;" horiz-adv-x="1060" d="M948 627q0 -248 -133 -441q-147 -213 -373 -213q-150 0 -235.5 110t-85.5 292q0 244 137 434q150 207 373 207q147 0 232 -104.5t85 -284.5zM768 598q0 137 -41 225q-45 100 -127 101q-147 0 -229 -181q-66 -141 -68 -321v-12q0 -134 45 -228q47 -104 123 -104 q158 0 236 184q61 143 61 336zM1043 1339l-236 -170l-346 140l-242 -111v76l248 166l361 -137l215 124v-88z" />
<glyph unicode="&#xf6;" horiz-adv-x="1007" d="M948 627q0 -248 -133 -441q-147 -213 -373 -213q-150 0 -235.5 110t-85.5 292q0 244 137 434q150 207 373 207q147 0 232 -104.5t85 -284.5zM768 598q0 137 -41 225q-45 100 -127 101q-147 0 -229 -181q-66 -141 -68 -321v-12q0 -134 45 -228q47 -104 123 -104 q158 0 236 184q61 143 61 336zM926 1294q0 -45 -32 -77.5t-79 -32.5q-45 0 -77.5 32.5t-32.5 77.5t32.5 78t77.5 33q47 0 79 -32t32 -79zM551 1294q0 -45 -31.5 -77.5t-78.5 -32.5q-45 0 -78 32.5t-33 77.5q0 47 32.5 79t78.5 32q47 0 78.5 -32t31.5 -79z" />
<glyph unicode="&#xf7;" horiz-adv-x="1228" d="M737 874q0 -49 -34.5 -83.5t-84.5 -34.5q-51 0 -85.5 34.5t-34.5 83.5q0 51 34.5 86t85.5 35q49 0 84 -35t35 -86zM1126 426h-1024v117h1024v-117zM737 98q0 -51 -34.5 -86t-84.5 -35q-51 0 -85.5 35t-34.5 86q0 49 34.5 84t85.5 35q49 0 84 -35t35 -84z" />
<glyph unicode="&#xf8;" horiz-adv-x="1028" d="M1079 989l-147 -147q47 -90 47 -215q0 -246 -143 -441q-156 -213 -381 -213q-166 0 -262 129l-109 -108l-51 53l123 123q-41 88 -41 205q0 242 147 434q156 207 381 207q156 0 248 -111l137 135zM768 782q-57 141 -156 142q-150 0 -239 -181q-74 -147 -76 -321 q0 -55 8 -103zM799 598q0 49 -11 100l-460 -460q55 -160 155 -160q158 0 246 184q70 150 70 336z" />
<glyph unicode="&#xf9;" horiz-adv-x="1044" d="M684 1143l-90 -21l-334 332l193 8zM1028 1022q-43 -166 -76 -330q-78 -389 -92 -692h-170l27 272l-10 4q-217 -227 -482 -303q-51 117 -51 318q0 211 111 698h172q-109 -403 -109 -622q0 -121 29 -215q90 27 164 79q176 131 233 385l72 318z" />
<glyph unicode="&#xfa;" horiz-adv-x="1044" d="M911 1485l-321 -316l-107 23l236 301zM1028 1022q-43 -166 -76 -330q-78 -389 -92 -692h-170l27 272l-10 4q-217 -227 -482 -303q-51 117 -51 318q0 211 111 698h172q-109 -403 -109 -622q0 -121 29 -215q90 27 164 79q176 131 233 385l72 318z" />
<glyph unicode="&#xfb;" horiz-adv-x="1044" d="M877 1180l-84 24l-146 180l-205 -180l-104 -24l289 338h90zM1028 1022q-43 -166 -76 -330q-78 -389 -92 -692h-170l27 272l-10 4q-217 -227 -482 -303q-51 117 -51 318q0 211 111 698h172q-109 -403 -109 -622q0 -121 29 -215q90 27 164 79q176 131 233 385l72 318z" />
<glyph unicode="&#xfc;" horiz-adv-x="1044" d="M907 1294q0 -45 -31.5 -77.5t-78.5 -32.5q-45 0 -78 32.5t-33 77.5t33 78t78 33q47 0 78.5 -32t31.5 -79zM532 1294q0 -45 -31.5 -77.5t-78.5 -32.5q-45 0 -78 32.5t-33 77.5q0 47 33 79t78 32q47 0 78.5 -32t31.5 -79zM1028 1022q-43 -166 -76 -330q-78 -389 -92 -692 h-170l27 272l-10 4q-217 -227 -482 -303q-51 117 -51 318q0 211 111 698h172q-109 -403 -109 -622q0 -121 29 -215q90 27 164 79q176 131 233 385l72 318z" />
<glyph unicode="&#xfd;" />
<glyph unicode="&#xfe;" />
<glyph unicode="&#xff;" horiz-adv-x="1036" d="M963 989l-801 -1433l-117 43q111 141 264 401l-231 989h201l149 -786l418 786h117zM838 1294q0 -45 -32 -77.5t-79 -32.5q-45 0 -77.5 32.5t-32.5 77.5t32.5 78t77.5 33q47 0 79 -32t32 -79zM463 1294q0 -45 -31.5 -77.5t-78.5 -32.5q-45 0 -78 32.5t-33 77.5 q0 47 32.5 79t78.5 32q47 0 78.5 -32t31.5 -79z" />
<glyph unicode="&#x131;" horiz-adv-x="589" d="M422 989l-174 -991h-162l174 991h162z" />
<glyph unicode="&#x152;" />
<glyph unicode="&#x153;" />
<glyph unicode="&#x178;" horiz-adv-x="1288" />
<glyph unicode="&#x2c6;" horiz-adv-x="1028" d="M745 1180l-81 24l-146 180l-205 -180l-106 -24l291 338h90z" />
<glyph unicode="&#x2dc;" horiz-adv-x="1138" d="M971 1339l-236 -170l-346 140l-242 -111v76l248 166l361 -137l215 124v-88z" />
<glyph unicode="&#x2000;" horiz-adv-x="917" />
<glyph unicode="&#x2001;" horiz-adv-x="1835" />
<glyph unicode="&#x2002;" horiz-adv-x="917" />
<glyph unicode="&#x2003;" horiz-adv-x="1835" />
<glyph unicode="&#x2004;" horiz-adv-x="610" />
<glyph unicode="&#x2005;" horiz-adv-x="458" />
<glyph unicode="&#x2006;" horiz-adv-x="305" />
<glyph unicode="&#x2007;" horiz-adv-x="305" />
<glyph unicode="&#x2008;" horiz-adv-x="229" />
<glyph unicode="&#x2009;" horiz-adv-x="366" />
<glyph unicode="&#x200a;" horiz-adv-x="100" />
<glyph unicode="&#x2010;" horiz-adv-x="878" d="M793 457h-670v116h670v-116z" />
<glyph unicode="&#x2011;" horiz-adv-x="878" d="M793 457h-670v116h670v-116z" />
<glyph unicode="&#x2012;" horiz-adv-x="878" d="M793 457h-670v116h670v-116z" />
<glyph unicode="&#x2013;" horiz-adv-x="1026" d="M924 528h-822v111h822v-111z" />
<glyph unicode="&#x2014;" horiz-adv-x="1724" d="M1733 528h-1643v111h1643v-111z" />
<glyph unicode="&#x2018;" horiz-adv-x="598" d="M637 1556q-229 -137 -229 -276q0 -14 6 -14q2 0 24.5 11t42.5 11q35 0 62 -22q35 -33 35 -92t-46 -107q-49 -53 -122 -53q-63 0 -97 41q-29 33 -28 84q0 293 309 463z" />
<glyph unicode="&#x2019;" horiz-adv-x="598" d="M555 1477q0 -293 -309 -463l-43 45q229 137 229 276q0 14 -6 15q-2 0 -24.5 -11.5t-43.5 -11.5q-35 0 -61 25q-35 31 -35 90t47 109.5t121 50.5q63 0 96 -41q29 -33 29 -84z" />
<glyph unicode="&#x201a;" horiz-adv-x="598" d="M426 125q0 -293 -309 -463l-43 45q229 137 229 277q0 14 -6 14q-2 0 -24.5 -11.5t-43.5 -11.5q-35 0 -61 23q-35 33 -35 92t47 109.5t121 50.5q63 0 96 -41q29 -33 29 -84z" />
<glyph unicode="&#x201c;" horiz-adv-x="978" d="M1016 1556q-229 -137 -230 -276q0 -14 7 -14q2 0 24.5 11t42.5 11q35 0 62 -22q35 -33 34 -92q0 -59 -45 -107q-49 -53 -123 -53q-63 0 -96 41q-29 33 -28 84q0 293 309 463zM635 1556q-229 -137 -229 -276q0 -14 6 -14q2 0 24.5 11t42.5 11q35 0 62 -22q35 -33 34 -92 q0 -59 -45 -107q-49 -53 -122 -53q-63 0 -97 41q-29 33 -28 84q0 293 309 463z" />
<glyph unicode="&#x201d;" horiz-adv-x="978" d="M985 1477q0 -293 -309 -463l-43 45q229 137 229 276q0 14 -6 15q-2 0 -24.5 -11.5t-43.5 -11.5q-35 0 -61 25q-35 31 -35 90t47 109.5t121 50.5q63 0 96 -41q29 -33 29 -84zM604 1477q0 -293 -309 -463l-43 45q229 137 229 276q0 14 -6 15q-2 0 -24.5 -11.5t-42.5 -11.5 q-35 0 -62 25q-35 31 -35 90t47.5 109.5t120.5 50.5q63 0 96 -41q29 -33 29 -84z" />
<glyph unicode="&#x201e;" horiz-adv-x="897" d="M772 125q0 -293 -309 -463l-43 45q229 137 229 277q0 14 -6 14q-2 0 -24.5 -11.5t-43.5 -11.5q-35 0 -61 23q-35 33 -35 92t47 109.5t121 50.5q63 0 96 -41q29 -33 29 -84zM399 125q0 -293 -309 -463l-43 45q229 137 229 277q0 14 -6 14q-2 0 -24.5 -11.5t-42.5 -11.5 q-35 0 -62 23q-35 33 -35 92t47.5 109.5t120.5 50.5q63 0 97 -41q28 -33 28 -84z" />
<glyph unicode="&#x2022;" />
<glyph unicode="&#x2026;" horiz-adv-x="1396" d="M1221 96q0 -51 -36 -87t-87 -36t-87 36t-36 87t36 87t87 36t87 -36t36 -87zM799 96q0 -51 -35 -87t-86 -36t-87 36t-36 87t36 87t87 36t86 -36t35 -87zM383 96q0 -51 -36 -87t-87 -36t-87 36t-36 87t36 87t87 36t87 -36t36 -87z" />
<glyph unicode="&#x202f;" horiz-adv-x="366" />
<glyph unicode="&#x2039;" horiz-adv-x="702" d="M610 63l-475 396l475 393v-84l-243 -309l243 -309v-87z" />
<glyph unicode="&#x203a;" horiz-adv-x="681" d="M573 459l-475 -396v87l242 309l-242 309v84z" />
<glyph unicode="&#x205f;" horiz-adv-x="458" />
<glyph unicode="&#x2122;" horiz-adv-x="1269" d="M1268 1401l-115 -600h-119l78 379l-235 -379l-68 -2l-66 377l-84 -375h-90l142 600h123l69 -402l248 402h117zM641 1401l-18 -86h-146l-110 -516h-127l110 516h-143l18 86h416z" />
<glyph unicode="&#xe000;" horiz-adv-x="990" d="M0 990h990v-990h-990v990z" />
<glyph unicode="&#xfb01;" horiz-adv-x="1212" d="M1263 1444q0 -49 -33.5 -83t-80.5 -34q-49 0 -83 34t-34 83q0 47 33.5 81t83.5 34q47 0 80.5 -34t33.5 -81zM1149 989l-174 -991h-162l174 991h162zM1190 1599l-53 -108q-51 68 -203 68q-178 0 -272 -129q-74 -104 -115 -328l-21 -113h269v-84h-287l-158 -905 q-53 -303 -383 -438l-24 96q57 37 102 84q109 113 133 258l158 905h-184v84h200l29 156q45 240 187.5 367.5t363.5 127.5q135 0 258 -41z" />
<glyph unicode="&#xfb02;" horiz-adv-x="1214" d="M1253 1608l-268 -1608h-172l268 1518zM1190 1599l-53 -108q-51 68 -203 68q-178 0 -272 -129q-74 -104 -115 -328l-21 -113h269v-84h-287l-158 -905q-53 -303 -383 -438l-24 96q57 37 102 84q109 113 133 258l158 905h-184v84h200l29 156q45 240 187.5 367.5t363.5 127.5 q135 0 258 -41z" />
<glyph unicode="&#xfb03;" horiz-adv-x="1908" d="M1960 1444q0 -49 -33.5 -83t-80.5 -34q-49 0 -83 34t-34 83q0 47 33.5 81t83.5 34q47 0 80.5 -34t33.5 -81zM1846 989l-174 -991h-162l174 991h162zM1886 1599l-53 -108q-51 68 -203 68q-178 0 -272 -129q-74 -104 -115 -328l-21 -113h269v-84h-287l-158 -905 q-53 -303 -383 -438l-24 96q57 37 102 84q109 113 133 258l158 905h-184v84h200l29 156q45 240 187.5 367.5t363.5 127.5q135 0 258 -41zM1190 1599l-53 -108q-51 68 -203 68q-178 0 -272 -129q-74 -104 -115 -328l-21 -113h269v-84h-287l-158 -905q-53 -303 -383 -438 l-24 96q57 37 102 84q109 113 133 258l158 905h-184v84h200l29 156q45 240 187.5 367.5t363.5 127.5q135 0 258 -41z" />
<glyph unicode="&#xfb04;" horiz-adv-x="1910" d="M1950 1608l-268 -1608h-172l268 1518zM1886 1599l-53 -108q-51 68 -203 68q-178 0 -272 -129q-74 -104 -115 -328l-21 -113h269v-84h-287l-158 -905q-53 -303 -383 -438l-24 96q57 37 102 84q109 113 133 258l158 905h-184v84h200l29 156q45 240 187.5 367.5t363.5 127.5 q135 0 258 -41zM1190 1599l-53 -108q-51 68 -203 68q-178 0 -272 -129q-74 -104 -115 -328l-21 -113h269v-84h-287l-158 -905q-53 -303 -383 -438l-24 96q57 37 102 84q109 113 133 258l158 905h-184v84h200l29 156q45 240 187.5 367.5t363.5 127.5q135 0 258 -41z" />
</font>
</defs>
</svg>
